<svg width="589" height="127" viewBox="0 0 589 127" fill="none" xmlns="http://www.w3.org/2000/svg">
<g clip-path="url(#clip0_1516_4205)">
<path d="M77.3917 24.9454H61.3347C60.9562 24.9454 60.955 24.9454 61.072 25.295C61.2938 25.9555 61.6349 26.5618 61.9676 27.1669C63.0319 29.1088 63.936 31.1206 64.4639 33.2746C64.9292 35.1767 64.6544 37.0318 63.8781 38.8122C63.5165 39.6559 63.062 40.4455 62.3882 41.0879C61.8976 41.5556 61.3408 41.9209 60.6561 41.9787C59.863 42.0462 59.2096 41.7376 58.7275 41.0867C58.2658 40.4684 58.0633 39.7512 57.8837 39.0159C57.4871 37.3609 57.3859 35.6529 56.9845 34.0003C56.6869 32.7131 56.0293 31.5371 55.0884 30.6095C53.6191 29.1546 51.9279 27.9963 50.1837 26.9066C48.671 25.9616 47.1341 25.0491 45.9034 23.722C45.0703 22.8082 44.4317 21.7346 44.0266 20.5663C43.6072 19.4019 43.3902 18.1941 43.2371 16.9682C43.0215 15.1687 42.947 13.3551 43.0141 11.544C43.0561 9.67678 43.4743 7.83725 44.2436 6.13541C44.8651 4.76022 45.7719 3.53292 46.9039 2.53492C47.9871 1.58789 49.2615 0.885285 50.6406 0.474922C51.8243 0.113307 53.0296 0.00361596 54.2567 0.00482134C59.4278 0.00482134 64.6001 -0.00723242 69.7712 0.0180806C71.29 0.0253129 72.4869 0.685865 73.1463 2.10822C73.6284 3.14485 73.661 4.23572 73.3874 5.33865C73.2933 5.71955 73.2934 5.72075 73.6839 5.77982C73.9021 5.81357 74.1227 5.76897 74.342 5.82442C75.3063 6.07152 75.985 6.67903 76.437 7.53968C77.1192 8.83908 77.1602 10.1915 76.654 11.5524C76.5575 11.8128 76.578 11.9429 76.842 12.0948C77.7581 12.624 78.1318 13.5051 78.309 14.4984C78.4729 15.4241 78.327 16.3161 77.9907 17.1779C77.8786 17.4636 77.9594 17.4853 78.2125 17.4841C82.6411 17.4793 87.0697 17.4793 91.4983 17.4841C92.0708 17.4841 92.6434 17.4841 93.2147 17.4841C94.1658 17.4769 95.0349 17.7565 95.7304 18.393C96.362 18.9715 96.7345 19.7442 96.902 20.588C97.1648 21.9139 96.8249 23.0747 95.8774 24.0366C95.3784 24.544 94.742 24.7996 94.0344 24.8972C93.5862 24.947 93.1351 24.9655 92.6844 24.9527L77.3917 24.9454ZM76.8275 23.9233H77.3097C82.7227 23.9233 88.1352 23.9233 93.5474 23.9233C94.1672 23.936 94.7667 23.7023 95.2145 23.2736C95.881 22.6383 96.0884 21.8199 95.9534 20.9592C95.8244 20.1396 95.4869 19.3838 94.7335 18.9004C94.2879 18.6248 93.7711 18.486 93.2473 18.5014H76.7673C76.3586 18.5014 76.3635 18.493 76.5262 18.1049C76.836 17.3684 77.2217 16.6584 77.323 15.8472C77.4182 15.0998 77.3651 14.3694 77.0228 13.6775C76.7323 13.0941 76.179 12.8747 75.6354 12.6433C75.1472 12.4359 75.1412 12.4299 75.3823 11.9634C75.9139 10.9328 76.1766 9.85884 75.8391 8.71493C75.4775 7.49749 74.776 6.70314 73.3295 6.75377C72.898 6.76823 72.4665 6.75377 72.0349 6.75377C71.8385 6.75377 71.8071 6.68024 71.877 6.51992C71.9011 6.46448 71.9216 6.40782 71.9469 6.35358C72.405 5.36276 72.7003 4.343 72.4713 3.24007C72.3435 2.62051 72.0928 2.06965 71.5829 1.65017C71.0661 1.22785 70.4143 1.00615 69.7471 1.02578C64.3952 1.02578 59.0433 1.02578 53.6914 1.02578C53.0021 1.02397 52.3147 1.09958 51.6422 1.25119C49.3811 1.73257 47.3896 3.06037 46.0758 4.96257C44.7679 6.8068 44.1689 8.91141 44.0531 11.1341C43.9722 12.6968 44.0016 14.2633 44.1411 15.8219C44.2382 17.0796 44.4456 18.3263 44.7607 19.5477C45.1573 21.0219 45.8697 22.3201 46.9702 23.3832C47.8887 24.268 48.9566 24.9659 50.0403 25.6337C50.9696 26.2063 51.9098 26.7595 52.7813 27.4213C53.9759 28.3301 55.2102 29.1824 56.2082 30.3299C57.1352 31.3966 57.686 32.6261 58.0163 33.9798C58.3466 35.3334 58.4478 36.7437 58.7323 38.1143C58.8818 38.8375 58.9794 39.5848 59.3627 40.2321C59.7786 40.9348 60.327 41.1964 61.1021 40.7938C61.4828 40.5859 61.8122 40.2955 62.0664 39.944C63.0982 38.5735 63.5888 37.0017 63.6684 35.3021C63.6905 34.4299 63.5566 33.5609 63.273 32.7358C62.7613 31.1094 62.0961 29.5353 61.2865 28.0348C60.6525 26.8535 60.0004 25.6952 59.7593 24.3536C59.6797 23.9196 59.6605 23.9233 60.1101 23.9233H76.8275Z" fill="#545454"/>
<path d="M76.8384 23.623H59.939C59.3447 23.623 59.1808 23.8376 59.2917 24.4222C59.5327 25.6626 60.0547 26.7763 60.7044 27.8491C61.5915 29.3161 62.2183 30.8987 62.7174 32.5357C62.9138 33.1793 63.0934 33.8242 63.1224 34.498C63.1373 35.0885 63.0806 35.6786 62.9536 36.2555C62.7186 37.438 62.3063 38.5457 61.5747 39.5221C61.3669 39.7936 61.1274 40.0393 60.8611 40.2537C60.35 40.672 59.816 40.5213 59.5231 39.8921C59.2748 39.3593 59.1964 38.7832 59.0952 38.2118C58.8167 36.6388 58.7336 35.0332 58.3237 33.4819C57.9721 32.1589 57.3111 30.9385 56.3951 29.9212C55.4899 28.9014 54.4002 28.1131 53.3202 27.2971C51.9714 26.2821 50.4719 25.5059 49.0712 24.5741C47.9623 23.8364 46.9401 23.0071 46.212 21.868C45.5479 20.8193 45.1742 19.6682 44.9331 18.4628C44.586 16.6547 44.5293 14.8298 44.4956 12.9964C44.4618 11.163 44.6161 9.39951 45.2393 7.68425C46.1192 5.2542 47.673 3.41719 50.0608 2.35766C50.8909 2.00269 51.77 1.77551 52.6681 1.68385C53.0766 1.64377 53.4871 1.62767 53.8976 1.63563C59.1699 1.63563 64.4411 1.64287 69.7134 1.6272C70.9381 1.6272 71.7324 2.44927 71.9675 3.45697C72.1624 4.19279 72.0765 4.97483 71.7264 5.65077C71.6089 5.90131 71.4209 6.11215 71.1854 6.25751C70.9499 6.40287 70.6771 6.47645 70.4005 6.46923C69.2783 6.49936 68.1549 6.50177 67.0326 6.52588C66.7241 6.53191 66.4143 6.56686 66.1045 6.58253C66.0314 6.58234 65.9591 6.59785 65.8926 6.62803C65.826 6.65821 65.7667 6.70234 65.7187 6.75744C65.6707 6.81254 65.6351 6.87732 65.6143 6.94738C65.5935 7.01744 65.588 7.09116 65.5982 7.16353C65.638 7.43353 65.9261 7.61434 66.2299 7.56251C66.3095 7.54904 66.3901 7.54219 66.4709 7.54202C68.8588 7.55889 71.2455 7.448 73.6345 7.4709C74.3047 7.47813 74.8254 7.74934 75.1437 8.29056C75.756 9.3296 75.8042 10.4217 75.2112 11.4969C74.8363 12.1767 74.1818 12.3407 73.4694 12.3563C72.7775 12.3672 72.0832 12.372 71.3913 12.3563C70.0365 12.3274 68.684 12.4419 67.3304 12.4238C67.1891 12.4182 67.0508 12.4656 66.9428 12.5569C66.8348 12.6482 66.7649 12.7766 66.747 12.9168C66.7361 13.1712 66.9627 13.399 67.2725 13.4376C67.3725 13.4436 67.4727 13.4436 67.5727 13.4376C70.104 13.4376 72.6353 13.4617 75.1666 13.4267C76.1526 13.4134 76.6986 13.9306 76.9035 14.7924C77.1338 15.7639 76.9361 16.6849 76.4599 17.5455C76.1682 18.0747 75.6511 18.1964 75.0967 18.1976C72.8779 18.1976 70.6588 18.1976 68.4393 18.1976C68.3489 18.1976 68.2585 18.1976 68.1681 18.1976C68.0474 18.21 67.9353 18.2657 67.8525 18.3543C67.7696 18.4429 67.7216 18.5585 67.7173 18.6798C67.7341 18.7986 67.7878 18.909 67.8709 18.9956C67.954 19.0821 68.0622 19.1403 68.1802 19.1619C68.2802 19.1692 68.3803 19.1619 68.4815 19.1619H93.0075C93.8127 19.1619 94.5058 19.403 95.0723 20.0189C95.8244 20.8434 95.7955 22.4478 94.9433 23.1529C94.611 23.449 94.1829 23.6151 93.7379 23.6206C88.1056 23.6166 82.4724 23.6174 76.8384 23.623ZM60.4091 39.3786C60.5296 39.24 60.6079 39.152 60.6791 39.0556C61.5771 37.8442 62.005 36.4676 62.1123 34.9766C62.1713 34.1473 61.923 33.3734 61.6904 32.5959C61.2473 31.1149 60.6256 29.6934 59.8389 28.3626C59.1784 27.2404 58.607 26.0881 58.3418 24.8043C58.2382 24.3017 58.1514 23.7942 58.472 23.3241C58.8167 22.8166 59.2965 22.6009 59.9028 22.6009C71.0727 22.6009 82.2394 22.6009 93.4028 22.6009C93.5234 22.6009 93.6439 22.6093 93.7644 22.6009C93.9213 22.5962 94.0736 22.5474 94.204 22.4602C94.3345 22.3731 94.4378 22.251 94.5021 22.1079C94.5752 21.94 94.6138 21.7592 94.6159 21.5762C94.6179 21.3931 94.5832 21.2115 94.5139 21.0421C94.4446 20.8726 94.342 20.7188 94.2122 20.5897C94.0825 20.4605 93.9282 20.3587 93.7584 20.2902C93.5402 20.2139 93.3096 20.1791 93.0786 20.1877C84.8651 20.1877 76.6508 20.1877 68.4357 20.1877C68.1751 20.1983 67.915 20.1574 67.6703 20.0672C67.3494 19.9315 67.0845 19.6901 66.9196 19.3832C66.7547 19.0762 66.6998 18.7221 66.7638 18.3796C66.8284 18.0364 67.0123 17.7272 67.283 17.5066C67.5537 17.2859 67.8937 17.1682 68.2428 17.1742C70.5331 17.1742 72.8233 17.1742 75.1135 17.1742C75.4378 17.1742 75.627 17.0646 75.7488 16.7499C75.9258 16.2893 76.0023 15.7961 75.973 15.3035C75.9477 14.7888 75.7391 14.3778 75.0496 14.385C72.4099 14.4115 69.7689 14.3982 67.1279 14.3934C66.3034 14.3934 65.6018 13.4858 65.779 12.6878C65.949 11.9152 66.536 11.3956 67.522 11.386C68.7648 11.3739 70.0075 11.3788 71.2515 11.3293C72.0338 11.298 72.8185 11.3233 73.6008 11.3221C74.095 11.3221 74.3975 11.081 74.5289 10.5989C74.6296 10.2391 74.642 9.86033 74.5651 9.49474C74.4036 8.78115 74.2143 8.47016 73.4139 8.47981C70.9863 8.50873 68.5574 8.49186 66.1298 8.55334C65.9798 8.56453 65.829 8.55027 65.6838 8.51115C65.3383 8.41117 65.0387 8.19326 64.8372 7.8953C64.6357 7.59733 64.545 7.23817 64.5809 6.88026C64.6604 6.18717 65.3584 5.55434 66.1129 5.55434C67.0664 5.55434 68.0162 5.45309 68.9697 5.48322C69.4109 5.49769 69.8532 5.46876 70.2956 5.48925C70.6138 5.50492 70.7778 5.34219 70.8911 5.08424C70.9736 4.84812 71.0294 4.60351 71.0574 4.35498C71.1009 4.15008 71.0982 3.93807 71.0496 3.73434C71.0009 3.5306 70.9076 3.34024 70.7763 3.17706C70.6449 3.01389 70.4789 2.88198 70.2903 2.79092C70.1017 2.69985 69.8951 2.65191 69.6857 2.65057C64.3338 2.65057 58.9815 2.65057 53.6288 2.65057C52.8903 2.64441 52.1545 2.74014 51.4422 2.93504C50.2059 3.26751 49.0787 3.91886 48.1732 4.82388C47.0281 5.9714 46.2988 7.36241 45.9047 8.93182C45.4768 10.6374 45.4346 12.3684 45.5262 14.115C45.5852 15.2336 45.6286 16.3522 45.7877 17.4623C45.936 18.5062 46.1686 19.5296 46.605 20.4975C47.2077 21.8451 48.2588 22.7877 49.4449 23.611C50.8913 24.6066 52.4499 25.4191 53.8747 26.4449C55.1126 27.3405 56.3011 28.2782 57.3052 29.4378C58.3045 30.5957 59.0077 31.9789 59.3543 33.4686C59.7087 34.9308 59.8184 36.4278 60.0667 37.9044C60.1427 38.3782 60.168 38.8615 60.4091 39.3786Z" fill="#545454"/>
</g>
<g clip-path="url(#clip1_1516_4205)">
<path d="M511.608 102.042H527.665C528.044 102.042 528.045 102.042 527.928 101.692C527.706 101.032 527.365 100.425 527.032 99.8204C525.968 97.8785 525.064 95.8667 524.536 93.7127C524.071 91.8106 524.346 89.9555 525.122 88.1751C525.484 87.3314 525.938 86.5418 526.612 85.8994C527.102 85.4317 527.659 85.0665 528.344 85.0086C529.137 84.9411 529.79 85.2497 530.273 85.9006C530.734 86.5189 530.937 87.2361 531.116 87.9714C531.513 89.6264 531.614 91.3345 532.015 92.987C532.313 94.2742 532.971 95.4502 533.912 96.3778C535.381 97.8327 537.072 98.9911 538.816 100.081C540.329 101.026 541.866 101.938 543.097 103.265C543.93 104.179 544.568 105.253 544.973 106.421C545.393 107.585 545.61 108.793 545.763 110.019C545.978 111.819 546.053 113.632 545.986 115.443C545.944 117.311 545.526 119.15 544.756 120.852C544.135 122.227 543.228 123.454 542.096 124.452C541.013 125.399 539.738 126.102 538.359 126.512C537.176 126.874 535.97 126.984 534.743 126.982C529.572 126.982 524.4 126.995 519.229 126.969C517.71 126.962 516.513 126.301 515.854 124.879C515.372 123.842 515.339 122.752 515.613 121.649C515.707 121.268 515.707 121.267 515.316 121.207C515.098 121.174 514.877 121.218 514.658 121.163C513.694 120.916 513.015 120.308 512.563 119.448C511.881 118.148 511.84 116.796 512.346 115.435C512.442 115.175 512.422 115.044 512.158 114.892C511.242 114.363 510.868 113.482 510.691 112.489C510.527 111.563 510.673 110.671 511.009 109.809C511.121 109.524 511.041 109.502 510.787 109.503C506.359 109.508 501.93 109.508 497.502 109.503C496.929 109.503 496.357 109.503 495.785 109.503C494.834 109.51 493.965 109.231 493.27 108.594C492.638 108.016 492.266 107.243 492.098 106.399C491.835 105.073 492.175 103.913 493.123 102.951C493.622 102.443 494.258 102.188 494.966 102.09C495.414 102.04 495.865 102.022 496.316 102.035L511.608 102.042ZM512.172 103.064H511.69C506.277 103.064 500.865 103.064 495.453 103.064C494.833 103.051 494.233 103.285 493.786 103.714C493.119 104.349 492.912 105.167 493.047 106.028C493.176 106.848 493.513 107.604 494.266 108.087C494.712 108.363 495.229 108.501 495.753 108.486H512.233C512.641 108.486 512.637 108.494 512.474 108.882C512.164 109.619 511.778 110.329 511.677 111.14C511.582 111.887 511.635 112.618 511.977 113.31C512.268 113.893 512.821 114.113 513.365 114.344C513.853 114.551 513.859 114.557 513.618 115.024C513.086 116.054 512.823 117.128 513.161 118.272C513.522 119.49 514.224 120.284 515.67 120.234C516.102 120.219 516.534 120.234 516.965 120.234C517.162 120.234 517.193 120.307 517.123 120.467C517.099 120.523 517.078 120.579 517.053 120.634C516.595 121.625 516.3 122.644 516.529 123.747C516.656 124.367 516.907 124.918 517.417 125.337C517.934 125.759 518.586 125.981 519.253 125.962C524.605 125.962 529.957 125.962 535.309 125.962C535.998 125.963 536.685 125.888 537.358 125.736C539.619 125.255 541.61 123.927 542.924 122.025C544.232 120.18 544.831 118.076 544.947 115.853C545.028 114.29 544.998 112.724 544.859 111.165C544.762 109.908 544.554 108.661 544.239 107.44C543.843 105.965 543.13 104.667 542.03 103.604C541.111 102.719 540.043 102.021 538.96 101.354C538.03 100.781 537.09 100.228 536.219 99.566C535.024 98.6572 533.79 97.805 532.792 96.6574C531.865 95.5907 531.314 94.3612 530.984 93.0075C530.653 91.6539 530.552 90.2436 530.268 88.8731C530.118 88.1498 530.021 87.4025 529.637 86.7552C529.221 86.0525 528.673 85.7909 527.898 86.1935C527.517 86.4014 527.188 86.6918 526.934 87.0433C525.902 88.4138 525.411 89.9856 525.332 91.6852C525.31 92.5574 525.443 93.4264 525.727 94.2515C526.239 95.8779 526.904 97.452 527.713 98.9525C528.348 100.134 529 101.292 529.241 102.634C529.32 103.068 529.34 103.064 528.89 103.064H512.172Z" fill="#545454"/>
<path d="M512.162 103.364H529.061C529.655 103.364 529.819 103.15 529.708 102.565C529.467 101.325 528.945 100.211 528.296 99.1382C527.408 97.6712 526.782 96.0886 526.283 94.4516C526.086 93.808 525.907 93.1631 525.878 92.4893C525.863 91.8988 525.919 91.3087 526.046 90.7318C526.281 89.5494 526.694 88.4416 527.425 87.4652C527.633 87.1937 527.873 86.948 528.139 86.7336C528.65 86.3153 529.184 86.466 529.477 87.0952C529.725 87.628 529.804 88.2041 529.905 88.7755C530.183 90.3485 530.266 91.9541 530.676 93.5054C531.028 94.8284 531.689 96.0488 532.605 97.0661C533.51 98.0859 534.6 98.8742 535.68 99.6902C537.029 100.705 538.528 101.481 539.929 102.413C541.038 103.151 542.06 103.98 542.788 105.119C543.452 106.168 543.826 107.319 544.067 108.525C544.414 110.333 544.471 112.158 544.504 113.991C544.538 115.824 544.384 117.588 543.761 119.303C542.881 121.733 541.327 123.57 538.939 124.63C538.109 124.985 537.23 125.212 536.332 125.303C535.923 125.344 535.513 125.36 535.102 125.352C529.83 125.352 524.559 125.344 519.287 125.36C518.062 125.36 517.268 124.538 517.033 123.53C516.838 122.795 516.924 122.012 517.274 121.337C517.391 121.086 517.579 120.875 517.815 120.73C518.05 120.584 518.323 120.511 518.6 120.518C519.722 120.488 520.845 120.486 521.967 120.461C522.276 120.455 522.586 120.42 522.896 120.405C522.969 120.405 523.041 120.389 523.107 120.359C523.174 120.329 523.233 120.285 523.281 120.23C523.329 120.175 523.365 120.11 523.386 120.04C523.406 119.97 523.412 119.896 523.402 119.824C523.362 119.554 523.074 119.373 522.77 119.425C522.69 119.438 522.61 119.445 522.529 119.445C520.141 119.428 517.755 119.539 515.365 119.516C514.695 119.509 514.175 119.238 513.856 118.697C513.244 117.658 513.196 116.566 513.789 115.49C514.164 114.811 514.818 114.647 515.531 114.631C516.223 114.62 516.917 114.615 517.609 114.631C518.964 114.66 520.316 114.545 521.67 114.563C521.811 114.569 521.949 114.522 522.057 114.43C522.165 114.339 522.235 114.211 522.253 114.07C522.264 113.816 522.037 113.588 521.727 113.55C521.628 113.544 521.527 113.544 521.427 113.55C518.896 113.55 516.365 113.526 513.833 113.561C512.847 113.574 512.301 113.057 512.096 112.195C511.866 111.223 512.064 110.302 512.54 109.442C512.832 108.913 513.349 108.791 513.903 108.79C516.122 108.79 518.341 108.79 520.561 108.79C520.651 108.79 520.741 108.79 520.832 108.79C520.953 108.777 521.065 108.722 521.148 108.633C521.23 108.544 521.278 108.429 521.283 108.308C521.266 108.189 521.212 108.078 521.129 107.992C521.046 107.905 520.938 107.847 520.82 107.825C520.72 107.818 520.62 107.825 520.518 107.825H495.993C495.187 107.825 494.494 107.584 493.928 106.968C493.176 106.144 493.204 104.54 494.057 103.834C494.389 103.538 494.817 103.372 495.262 103.367C500.894 103.371 506.528 103.37 512.162 103.364ZM528.591 87.6087C528.47 87.7473 528.392 87.8353 528.321 87.9317C527.423 89.1431 526.995 90.5197 526.888 92.0107C526.829 92.84 527.077 93.6139 527.31 94.3914C527.753 95.8724 528.374 97.294 529.161 98.6247C529.822 99.7469 530.393 100.899 530.658 102.183C530.762 102.686 530.849 103.193 530.528 103.663C530.183 104.171 529.704 104.386 529.097 104.386C517.927 104.386 506.761 104.386 495.597 104.386C495.477 104.386 495.356 104.378 495.236 104.386C495.079 104.391 494.926 104.44 494.796 104.527C494.666 104.614 494.562 104.736 494.498 104.879C494.425 105.047 494.386 105.228 494.384 105.411C494.382 105.594 494.417 105.776 494.486 105.945C494.555 106.115 494.658 106.269 494.788 106.398C494.918 106.527 495.072 106.629 495.242 106.697C495.46 106.773 495.69 106.808 495.921 106.8C504.135 106.8 512.349 106.8 520.564 106.8C520.825 106.789 521.085 106.83 521.33 106.92C521.651 107.056 521.916 107.297 522.08 107.604C522.245 107.911 522.3 108.265 522.236 108.608C522.172 108.951 521.988 109.26 521.717 109.481C521.446 109.701 521.106 109.819 520.757 109.813C518.467 109.813 516.177 109.813 513.886 109.813C513.562 109.813 513.373 109.923 513.251 110.237C513.074 110.698 512.998 111.191 513.027 111.684C513.052 112.199 513.261 112.61 513.95 112.602C516.59 112.576 519.231 112.589 521.872 112.594C522.697 112.594 523.398 113.502 523.221 114.3C523.051 115.072 522.464 115.592 521.478 115.601C520.235 115.613 518.992 115.609 517.749 115.658C516.966 115.689 516.182 115.664 515.399 115.665C514.905 115.665 514.602 115.906 514.471 116.388C514.37 116.748 514.358 117.127 514.435 117.493C514.596 118.206 514.786 118.517 515.586 118.507C518.014 118.479 520.443 118.495 522.87 118.434C523.02 118.423 523.171 118.437 523.316 118.476C523.662 118.576 523.961 118.794 524.163 119.092C524.364 119.39 524.455 119.749 524.419 120.107C524.34 120.8 523.642 121.433 522.887 121.433C521.934 121.433 520.984 121.534 520.03 121.504C519.589 121.49 519.147 121.519 518.704 121.498C518.386 121.482 518.222 121.645 518.109 121.903C518.026 122.139 517.971 122.384 517.943 122.632C517.899 122.837 517.902 123.049 517.95 123.253C517.999 123.457 518.092 123.647 518.224 123.81C518.355 123.973 518.521 124.105 518.71 124.196C518.898 124.287 519.105 124.335 519.314 124.337C524.666 124.337 530.019 124.337 535.371 124.337C536.11 124.343 536.845 124.247 537.558 124.052C538.794 123.72 539.921 123.068 540.827 122.163C541.972 121.016 542.701 119.625 543.095 118.055C543.523 116.35 543.565 114.619 543.474 112.872C543.415 111.754 543.371 110.635 543.212 109.525C543.064 108.481 542.831 107.458 542.395 106.49C541.792 105.142 540.741 104.2 539.555 103.376C538.109 102.381 536.55 101.568 535.125 100.542C533.887 99.6469 532.699 98.7091 531.695 97.5495C530.696 96.3916 529.992 95.0084 529.646 93.5187C529.291 92.0566 529.182 90.5595 528.933 89.0829C528.857 88.6092 528.832 88.1258 528.591 87.6087Z" fill="#545454"/>
</g>
<path fill-rule="evenodd" clip-rule="evenodd" d="M0 63.5C0 45.12 11.6675 29.4651 28 23.5377V24.924C12.3998 30.7906 1.3 45.8491 1.3 63.5C1.3 86.2541 19.7459 104.7 42.5 104.7H477V106H42.5C19.0279 106 0 86.9721 0 63.5ZM560 103.811C576.854 98.1691 589 82.2529 589 63.5C589 40.0279 569.972 21 546.5 21H111V22.3H546.5C569.254 22.3 587.7 40.7459 587.7 63.5C587.7 81.5258 576.124 96.8478 560 102.437V103.811Z" fill="#545454"/>
<path fill-rule="evenodd" clip-rule="evenodd" d="M119.3 74.0157L119.298 74.0141C116.25 70.9524 114.71 67.2626 114.71 62.9961C114.71 58.7295 116.25 55.0453 119.3 51.996C122.349 48.9467 126.033 47.4062 130.3 47.4062C133.779 47.4062 136.952 48.4904 139.79 50.6359L140.706 51.3286L136.951 55.0833L136.256 54.5529C134.382 53.1236 132.404 52.4336 130.3 52.4336C127.549 52.4336 125.218 53.4471 123.252 55.5201C121.283 57.5964 120.304 60.07 120.304 62.9961C120.304 65.9221 121.283 68.3958 123.252 70.4721C125.218 72.5451 127.549 73.5586 130.3 73.5586C132.5 73.5586 134.454 72.8873 136.194 71.5257V66.0078H130.823V61.4492H141.788V73.5666L141.495 73.8595C140.639 74.7159 139.788 75.4314 138.94 75.9961L138.939 75.9968C136.327 77.7336 133.439 78.6055 130.3 78.6055C126.033 78.6055 122.349 77.065 119.3 74.0157ZM137.194 65.0078V72C135.189 73.7057 132.891 74.5586 130.3 74.5586C127.266 74.5586 124.675 73.4258 122.526 71.1602C120.378 68.8945 119.304 66.1732 119.304 62.9961C119.304 59.819 120.378 57.0977 122.526 54.832C124.675 52.5664 127.266 51.4336 130.3 51.4336C132.644 51.4336 134.831 52.2083 136.862 53.7578L139.187 51.4336C138.914 51.2274 138.638 51.0318 138.359 50.8466C135.909 49.2197 133.222 48.4062 130.3 48.4062C126.302 48.4062 122.871 49.8385 120.007 52.7031C117.142 55.5677 115.71 58.9987 115.71 62.9961C115.71 66.9935 117.142 70.431 120.007 73.3086C122.871 76.1732 126.302 77.6055 130.3 77.6055C133.243 77.6055 135.938 76.7917 138.386 75.1641C139.167 74.6432 139.968 73.9727 140.788 73.1523V62.4492H131.823V65.0078H137.194ZM152.465 78V47.9922H172.317V52.5508H158.059V59.4375H169.915V63.9961H158.059V73.4414H172.317V78H152.465ZM157.059 74.4414V62.9961H168.915V60.4375H157.059V51.5508H171.317V48.9922H153.465V77H171.317V74.4414H157.059ZM180.826 52.6484V47.9922H203.237V52.6484H194.838V78H189.244V52.6484H180.826ZM190.244 51.6484V77H193.838V51.6484H202.237V48.9922H181.826V51.6484H190.244ZM231.103 78V47.9922H236.697V78H231.103ZM249.581 78V47.9922H254.723L267.218 67.5772V47.9922H272.812V78H267.669L255.175 58.398V78H249.581ZM254.175 54.9688L268.218 77H271.812V48.9922H268.218V71.0039L254.175 48.9922H250.581V77H254.175V54.9688ZM300.248 52.6484V47.9922H322.658V52.6484H314.26V78H308.666V52.6484H300.248ZM309.666 51.6484V77H313.26V51.6484H321.658V48.9922H301.248V51.6484H309.666ZM335.88 74.0397L335.878 74.0381C332.974 70.9949 331.519 67.2949 331.519 62.9961C331.519 58.6972 332.974 55.0028 335.88 51.972C338.801 48.9247 342.505 47.4062 346.914 47.4062C351.336 47.4062 355.102 48.9305 358.148 51.9765C361.187 55.0151 362.719 58.7068 362.719 62.9961C362.719 67.2853 361.187 70.9826 358.15 74.0336L358.148 74.0352C355.102 77.0812 351.336 78.6055 346.914 78.6055C342.505 78.6055 338.801 77.087 335.88 74.0397ZM336.601 73.3477C333.88 70.4961 332.519 67.0456 332.519 62.9961C332.519 58.9466 333.88 55.5026 336.601 52.6641C339.323 49.8255 342.76 48.4062 346.914 48.4062C351.081 48.4062 354.59 49.832 357.441 52.6836C360.293 55.5352 361.719 58.9727 361.719 62.9961C361.719 67.0195 360.293 70.4635 357.441 73.3281C354.59 76.1797 351.081 77.6055 346.914 77.6055C342.76 77.6055 339.323 76.1862 336.601 73.3477ZM339.881 55.4648C338.042 57.5065 337.113 59.9962 337.113 62.9961C337.113 65.996 338.042 68.4857 339.881 70.5274C341.714 72.5482 344.031 73.5586 346.914 73.5586C349.795 73.5586 352.19 72.5413 354.161 70.4873C356.139 68.4263 357.125 65.9486 357.125 62.9961C357.125 60.0436 356.139 57.5659 354.161 55.5049C352.19 53.4509 349.795 52.4336 346.914 52.4336C344.031 52.4336 341.714 53.444 339.881 55.4648ZM339.14 54.793C337.122 57.0326 336.113 59.7669 336.113 62.9961C336.113 66.2253 337.122 68.9596 339.14 71.1992C341.172 73.4388 343.763 74.5586 346.914 74.5586C350.065 74.5586 352.721 73.4323 354.883 71.1797C357.044 68.9271 358.125 66.1992 358.125 62.9961C358.125 59.793 357.044 57.0651 354.883 54.8125C352.721 52.5599 350.065 51.4336 346.914 51.4336C343.763 51.4336 341.172 52.5534 339.14 54.793ZM374.939 47.9922H380.533V67.3906C380.533 68.4046 380.762 69.2772 381.199 70.0351C381.658 70.829 382.229 71.4263 382.911 71.8529C383.688 72.3308 384.474 72.6905 385.27 72.9371C386.073 73.1725 386.829 73.2852 387.54 73.2852C388.267 73.2852 389.022 73.172 389.809 72.9376C390.605 72.6912 391.384 72.332 392.147 71.8551L392.153 71.8514C392.85 71.4227 393.426 70.8305 393.882 70.0533C394.318 69.2974 394.548 68.4192 394.548 67.3906V47.9922H400.142V66.6094C400.142 68.4458 399.852 70.1143 399.248 71.5963C398.661 73.0363 397.898 74.2294 396.935 75.1319C396.032 75.9778 394.984 76.6741 393.801 77.2234C392.653 77.7568 391.557 78.1264 390.519 78.3147C389.534 78.5085 388.541 78.6055 387.54 78.6055C386.564 78.6055 385.566 78.508 384.547 78.3156C383.494 78.1275 382.396 77.7573 381.256 77.2215C380.085 76.6711 379.039 75.9685 378.126 75.1124L378.12 75.1068L378.114 75.1012C377.172 74.1884 376.419 72.9935 375.833 71.5573C375.23 70.0769 374.939 68.422 374.939 66.6094V47.9922ZM384.728 77.332C385.691 77.5143 386.629 77.6055 387.54 77.6055C388.478 77.6055 389.409 77.5143 390.333 77.332C391.271 77.1628 392.287 76.8242 393.38 76.3164C394.474 75.8086 395.431 75.1706 396.251 74.4023C397.085 73.6211 397.775 72.5599 398.322 71.2188C398.869 69.8776 399.142 68.3411 399.142 66.6094V48.9922H395.548V67.3906C395.548 68.5755 395.281 69.6302 394.747 70.5547C394.214 71.4661 393.524 72.1823 392.677 72.7031C391.844 73.224 390.984 73.6211 390.099 73.8945C389.227 74.1549 388.374 74.2852 387.54 74.2852C386.72 74.2852 385.867 74.1549 384.982 73.8945C384.096 73.6211 383.231 73.224 382.384 72.7031C381.551 72.1823 380.867 71.4596 380.333 70.5352C379.8 69.6107 379.533 68.5625 379.533 67.3906V48.9922H375.939V66.6094C375.939 68.3151 376.212 69.8385 376.759 71.1797C377.306 72.5208 377.99 73.5885 378.81 74.3828C379.643 75.1641 380.6 75.8086 381.681 76.3164C382.762 76.8242 383.777 77.1628 384.728 77.332ZM416.581 74.0157L416.579 74.0141C413.531 70.9524 411.991 67.2626 411.991 62.9961C411.991 58.7295 413.532 55.0453 416.581 51.996C419.63 48.9467 423.314 47.4062 427.581 47.4062C431.06 47.4062 434.233 48.4904 437.071 50.6359L437.987 51.3286L434.232 55.0833L433.537 54.5529C431.663 53.1236 429.686 52.4336 427.581 52.4336C424.831 52.4336 422.499 53.4471 420.533 55.5201C418.564 57.5964 417.585 60.07 417.585 62.9961C417.585 65.9221 418.564 68.3958 420.533 70.4721C422.499 72.5451 424.831 73.5586 427.581 73.5586C429.746 73.5586 431.721 72.876 433.534 71.481L434.23 70.9453L437.993 74.709L437.065 75.4C434.204 77.528 431.034 78.6055 427.581 78.6055C423.314 78.6055 419.63 77.065 416.581 74.0157ZM417.288 73.3086C414.423 70.431 412.991 66.9935 412.991 62.9961C412.991 58.9987 414.423 55.5677 417.288 52.7031C420.153 49.8385 423.584 48.4062 427.581 48.4062C430.504 48.4062 433.19 49.2197 435.641 50.8466C435.919 51.0318 436.195 51.2274 436.468 51.4336L434.144 53.7578C432.112 52.2083 429.925 51.4336 427.581 51.4336C424.547 51.4336 421.956 52.5664 419.808 54.832C417.659 57.0977 416.585 59.819 416.585 62.9961C416.585 66.1732 417.659 68.8945 419.808 71.1602C421.956 73.4258 424.547 74.5586 427.581 74.5586C429.977 74.5586 432.164 73.7969 434.144 72.2734L436.468 74.5977C436.193 74.802 435.916 74.996 435.635 75.1795C433.166 76.7968 430.481 77.6055 427.581 77.6055C423.584 77.6055 420.153 76.1732 417.288 73.3086ZM449.044 78V47.9922H454.637V60.6875H466.641V47.9922H472.255V78H466.641V65.3242H454.637V78H449.044ZM453.637 64.3242H467.641V77H471.255V48.9922H467.641V61.6875H453.637V48.9922H450.044V77H453.637V64.3242ZM232.103 77H235.697V48.9922H232.103V77Z" fill="#545454"/>
<defs>
<clipPath id="clip0_1516_4205">
<rect width="54" height="41.9871" fill="white" transform="translate(43)"/>
</clipPath>
<clipPath id="clip1_1516_4205">
<rect width="54" height="41.9871" fill="white" transform="matrix(-1 0 0 -1 546 126.987)"/>
</clipPath>
</defs>
</svg>
