<svg width="453" height="588" viewBox="0 0 453 588" fill="none" xmlns="http://www.w3.org/2000/svg">
<g clip-path="url(#clip0_1639_16012)">
<mask id="mask0_1639_16012" style="mask-type:luminance" maskUnits="userSpaceOnUse" x="49" y="98" width="354" height="354">
<path d="M226.19 451.49C323.585 451.49 402.54 372.535 402.54 275.14C402.54 177.745 323.585 98.79 226.19 98.79C128.794 98.79 49.8398 177.745 49.8398 275.14C49.8398 372.535 128.794 451.49 226.19 451.49Z" fill="white"/>
</mask>
<g mask="url(#mask0_1639_16012)">
<path d="M285.34 267.73L291.06 257.38L293.92 252.2L295.11 250.05C295.34 249.61 295.58 249.18 295.82 248.75C295.95 248.51 296.08 248.27 296.23 248.03C295.64 248.73 294.76 248.8 293.6 248.24C293.968 248.726 294.38 249.178 294.83 249.59C295.285 250.199 295.706 250.833 296.09 251.49C296.89 252.8 297.57 254.18 298.24 255.56C299.552 258.506 301.189 261.297 303.12 263.88C304.918 265.94 306.929 267.804 309.12 269.44C310.12 270.22 311.04 271 311.95 271.84C312.42 272.28 312.89 272.74 313.33 273.22C313.54 273.46 313.75 273.7 313.95 273.95C313.6 273.51 314.13 274.21 314.19 274.3C314.526 274.806 314.817 275.342 315.06 275.9C314.81 275.29 315.15 276.26 315.16 276.3C315.25 276.61 315.33 276.92 315.39 277.23C315.29 276.66 315.39 277.9 315.39 277.86C315.39 278.25 315.39 278.65 315.39 279.04C315.39 279.84 315.3 280.63 315.26 281.43C315.104 283.109 315.25 284.802 315.69 286.43C316.305 288.074 317.251 289.575 318.47 290.84C319.18 291.68 318.08 290.47 318.8 291.26C318.98 291.6 319.01 291.63 318.89 291.33C318.908 291.174 318.966 291.025 319.06 290.9C319.06 290.57 318.82 291.17 319.06 290.96C318.79 291.24 318.52 291.52 318.24 291.78C316.982 292.994 315.562 294.027 314.02 294.85C311.068 296.455 307.76 297.29 304.4 297.28C300.22 297.28 300.21 303.78 304.4 303.78C308.359 303.757 312.266 302.873 315.85 301.19C317.567 300.379 319.184 299.372 320.67 298.19C322.3 297.078 323.699 295.662 324.79 294.02C325.309 293.068 325.554 291.99 325.495 290.908C325.437 289.825 325.079 288.78 324.46 287.89C323.932 287.147 323.361 286.436 322.75 285.76C322.41 285.36 322.152 284.898 321.99 284.4C321.863 283.741 321.819 283.069 321.86 282.4C321.86 281.47 321.96 280.55 322.01 279.63C322.152 277.82 321.959 275.999 321.44 274.26C319.34 267.97 313.23 265.09 308.92 260.57C304.34 255.76 303.25 247.91 297.92 243.34C295.4 241.17 292.33 242.09 290.63 244.71C289.34 246.71 288.29 248.94 287.13 251.04L279.76 264.41C277.76 268.07 283.34 271.35 285.37 267.69L285.34 267.73Z" fill="#545454"/>
<path d="M284.609 268.72C271.519 254.24 253.889 243.05 234.309 240.38C214.459 237.67 193.819 243.74 180.199 258.82C173.199 266.62 168.419 275.82 164.569 285.54C162.569 290.54 160.779 295.54 158.369 300.29C156.395 304.244 153.969 307.955 151.139 311.35C145.428 318.17 138.272 323.636 130.189 327.35C126.29 329.122 122.209 330.463 118.019 331.35C115.843 331.805 113.643 332.139 111.429 332.35C108.734 332.559 106.059 332.977 103.429 333.6C98.3191 334.95 93.7891 338.19 91.9091 343.27C91.1411 345.495 91.1317 347.911 91.8826 350.142C92.6334 352.373 94.1021 354.292 96.0591 355.6C99.3391 357.93 103.809 358.6 107.739 358.39C112.827 358.028 117.82 356.818 122.509 354.81C125.113 353.76 127.637 352.52 130.059 351.1C133.649 348.97 130.389 343.34 126.779 345.49C122.552 348.006 117.966 349.864 113.179 351C111.949 351.29 110.719 351.52 109.469 351.73C108.759 351.85 109.909 351.73 109.349 351.73L108.719 351.79C108.239 351.837 107.759 351.867 107.279 351.88C106.358 351.905 105.436 351.875 104.519 351.79H104.149C104.519 351.85 103.869 351.74 103.789 351.72C103.269 351.62 102.789 351.51 102.249 351.37C101.709 351.23 101.459 351.12 101.069 350.98C100.679 350.84 101.469 351.18 101.009 350.98L100.479 350.71C100.129 350.52 99.8091 350.32 99.4791 350.1C99.1491 349.88 99.9691 350.61 99.3491 349.99L98.8391 349.49C98.7791 349.43 98.3991 348.98 98.6391 349.28C98.8791 349.58 98.5291 349.11 98.4791 349.03C98.4291 348.95 98.2891 348.7 98.1991 348.54C98.3391 348.98 97.9391 348.11 98.1991 348.54C97.8883 347.837 97.7809 347.061 97.8891 346.3C98.0087 345.591 98.2633 344.912 98.6391 344.3C99.1323 343.477 99.7573 342.74 100.489 342.12C102.072 340.908 103.913 340.077 105.869 339.69C110.499 338.59 115.329 338.57 119.989 337.56C132.824 334.677 144.508 328.034 153.549 318.48C156.567 315.28 159.248 311.779 161.549 308.03C164.142 303.606 166.353 298.969 168.159 294.17C170.029 289.49 171.739 284.74 173.909 280.17C175.916 275.903 178.309 271.83 181.059 268C186.279 260.724 193.283 254.914 201.399 251.13C209.565 247.493 218.47 245.822 227.399 246.25C245.399 246.92 262.309 255.9 275.199 268.34C276.859 269.94 278.459 271.607 279.999 273.34C280.298 273.653 280.656 273.904 281.053 274.077C281.45 274.25 281.878 274.342 282.311 274.347C282.744 274.352 283.173 274.271 283.575 274.108C283.976 273.945 284.34 273.704 284.647 273.398C284.953 273.092 285.196 272.728 285.36 272.327C285.524 271.926 285.606 271.497 285.601 271.064C285.597 270.631 285.506 270.203 285.334 269.806C285.162 269.408 284.912 269.049 284.599 268.75L284.609 268.72Z" fill="#545454"/>
<path d="M157.179 327.12C159.258 329.365 160.614 332.184 161.069 335.21C161.569 338.37 160.569 341.78 159.699 345.03C158.699 348.63 158.059 352.6 159.289 356.23C159.826 357.955 160.817 359.505 162.157 360.717C163.497 361.929 165.139 362.759 166.909 363.12C171.129 363.84 174.169 361.44 176.279 358C177.929 355.33 179.459 352.58 180.999 349.85C184.229 344.14 187.439 338.4 191.169 333.01C195.039 327.43 199.829 322.01 205.449 318.17C206.176 317.718 206.701 317.004 206.917 316.176C207.133 315.348 207.023 314.469 206.609 313.72C206.17 312.982 205.458 312.447 204.627 312.23C203.796 312.013 202.914 312.132 202.169 312.56C191.499 319.85 184.439 330.73 178.119 341.75C176.549 344.49 175.009 347.25 173.439 349.99C172.729 351.24 172.009 352.48 171.269 353.72C170.879 354.38 170.499 355.08 170.039 355.72C169.781 356.12 169.44 356.461 169.039 356.72C169.479 356.47 168.639 356.84 168.569 356.85C169.189 356.74 168.179 356.85 168.119 356.85C168.739 356.91 167.709 356.72 167.669 356.71C166.899 356.46 167.869 356.94 167.199 356.48C166.769 356.238 166.393 355.912 166.094 355.52C165.795 355.127 165.579 354.678 165.459 354.2C164.559 351.28 165.659 348.08 166.459 345.03C167.697 341.067 167.941 336.86 167.169 332.78C166.311 328.965 164.446 325.45 161.769 322.6C161.159 321.99 160.332 321.647 159.469 321.647C158.607 321.647 157.779 321.99 157.169 322.6C156.559 323.21 156.217 324.037 156.217 324.9C156.217 325.763 156.559 326.59 157.169 327.2L157.179 327.12Z" fill="#545454"/>
<path d="M260.66 312.2C273.39 319.42 278.99 333.95 281.15 347.95C281.83 352.36 281.68 357.16 284 361.12C284.82 362.51 287 363.34 288.45 362.28C295.45 357.1 300.45 349.54 299.7 340.51C298.87 331.16 293.35 323.51 290.63 314.7C289.33 310.53 288.53 305.81 290.33 301.7C290.739 300.95 290.846 300.072 290.629 299.247C290.411 298.421 289.886 297.71 289.16 297.26C287.78 296.45 285.43 296.81 284.72 298.42C280.92 307.06 283.72 316.05 287.42 324.21C290.71 331.47 295.31 339.76 292.28 347.88C290.749 351.396 288.291 354.431 285.17 356.66L289.62 357.83C288.859 356.371 288.409 354.771 288.3 353.13C288.06 350.97 287.81 348.82 287.49 346.66C286.901 342.598 286.005 338.586 284.81 334.66C282.618 327.194 278.823 320.297 273.69 314.45C270.88 311.332 267.588 308.685 263.94 306.61C260.3 304.54 257.02 310.15 260.66 312.22V312.2Z" fill="#545454"/>
<path d="M199.058 446.2C198.808 425.75 198.808 405.25 200.818 384.87C201.77 374.899 203.337 364.997 205.508 355.22C207.418 346.71 209.738 337.96 213.438 330.22C216.868 323.07 221.648 316.08 228.508 312.12C229.944 311.202 231.639 310.773 233.338 310.9C235.103 311.256 236.735 312.09 238.058 313.31C241.258 316.13 243.398 320.06 244.998 323.96C246.818 328.41 248.218 333.05 249.658 337.64C251.192 342.493 252.645 347.363 254.018 352.25C256.772 362.036 259.218 371.903 261.358 381.85C265.626 401.598 268.659 421.594 270.438 441.72C270.668 444.26 270.868 446.79 271.058 449.32C271.076 450.176 271.424 450.992 272.03 451.598C272.636 452.204 273.452 452.552 274.308 452.57C275.168 452.562 275.99 452.217 276.598 451.609C277.206 451.001 277.55 450.179 277.558 449.32C276.006 428.111 273.11 407.022 268.888 386.18C266.802 375.826 264.375 365.55 261.608 355.35C258.898 345.35 255.978 335.25 252.488 325.45C249.488 316.93 244.228 305.83 234.068 304.45C228.908 303.77 224.478 306.6 220.658 309.75C217.277 312.609 214.333 315.948 211.918 319.66C207.068 326.91 204.018 335.32 201.688 343.66C198.873 353.984 196.784 364.493 195.438 375.11C192.658 396.03 192.318 417.18 192.438 438.25C192.438 440.88 192.438 443.51 192.518 446.13C192.518 450.31 199.068 450.32 199.018 446.13L199.058 446.2Z" fill="#545454"/>
<path d="M176.429 361.12C171.583 380.327 168.745 399.986 167.959 419.78C167.732 425.42 167.679 431.06 167.799 436.7C167.879 440.87 174.379 440.89 174.299 436.7C173.887 417.317 175.509 397.944 179.139 378.9C180.172 373.513 181.359 368.163 182.699 362.85C183.699 358.8 177.459 357.06 176.429 361.12Z" fill="#545454"/>
<path d="M261.898 331.31C268.453 345.092 273.609 359.498 277.288 374.31C281.033 389.397 283.914 404.685 285.918 420.1C287.088 428.61 288.068 437.1 288.998 445.68C289.021 446.535 289.371 447.348 289.975 447.953C290.58 448.557 291.393 448.907 292.248 448.93C293.858 448.93 295.688 447.44 295.498 445.68C293.778 429.93 291.868 414.18 289.098 398.56C286.479 383.069 282.668 367.804 277.698 352.9C274.811 344.423 271.408 336.131 267.508 328.07C267.298 327.692 267.014 327.359 266.674 327.092C266.333 326.825 265.943 326.629 265.526 326.515C265.108 326.4 264.672 326.371 264.243 326.427C263.814 326.484 263.401 326.625 263.028 326.844C262.654 327.062 262.328 327.353 262.068 327.699C261.809 328.045 261.621 328.44 261.515 328.859C261.41 329.279 261.39 329.715 261.456 330.143C261.521 330.571 261.672 330.981 261.898 331.35V331.31Z" fill="#545454"/>
<path d="M264.699 223.3C264.769 228.94 265.509 235.42 270.419 239.01C271.657 239.787 272.978 240.421 274.359 240.9C273.959 240.73 275.599 241.68 274.899 241.09C275.019 241.19 275.099 241.61 275.019 241.29C274.939 240.97 275.019 242.16 275.019 241.96C274.687 243.528 274.208 245.061 273.589 246.54C273.009 248.16 272.359 249.756 271.639 251.33C271.229 252.078 271.12 252.955 271.336 253.781C271.552 254.606 272.075 255.318 272.799 255.77C274.199 256.59 276.519 256.21 277.249 254.61C278.938 251.231 280.278 247.69 281.249 244.04C281.812 242.079 281.638 239.981 280.759 238.14C279.723 236.504 278.144 235.286 276.299 234.7C275.799 234.522 275.308 234.319 274.829 234.09C274.54 233.945 274.263 233.778 273.999 233.59C273.819 233.46 273.829 233.47 274.049 233.59C273.926 233.494 273.813 233.387 273.709 233.27C273.629 233.19 273.089 232.58 273.249 232.79C273.409 233 272.949 232.32 272.889 232.21C272.729 231.94 272.589 231.66 272.449 231.37C272.359 231.18 272.309 231.08 272.449 231.37C272.389 231.22 272.329 231.07 272.279 230.91C272.063 230.281 271.883 229.64 271.739 228.99C271.669 228.66 271.599 228.33 271.549 227.99C271.549 227.82 271.489 227.65 271.469 227.48C271.469 227.72 271.469 227.72 271.469 227.48C271.309 226.07 271.259 224.65 271.239 223.24C271.189 219.06 264.689 219.05 264.739 223.24L264.699 223.3Z" fill="#545454"/>
<path d="M257.898 235.9C262.078 235.9 262.088 229.4 257.898 229.4C253.708 229.4 253.708 235.9 257.898 235.9Z" fill="#545454"/>
<path d="M258.139 201.53C255.914 207.529 251.896 212.697 246.629 216.33C240.489 220.48 232.579 221.91 227.539 227.67C226.008 229.283 224.861 231.22 224.182 233.337C223.504 235.455 223.311 237.698 223.619 239.9C223.889 241.64 226.069 242.6 227.619 242.17C228.438 241.921 229.13 241.367 229.552 240.623C229.975 239.879 230.095 239.001 229.889 238.17C229.9 237.953 229.9 237.736 229.889 237.52C229.889 237.41 229.949 236.6 229.889 236.9C229.99 236.179 230.192 235.475 230.489 234.81C231.116 233.462 231.999 232.25 233.089 231.24C235.479 228.92 238.829 227.48 241.959 226.08C245.208 224.736 248.3 223.039 251.179 221.02C257.271 216.551 261.877 210.352 264.399 203.23C264.624 202.399 264.511 201.512 264.086 200.763C263.661 200.015 262.958 199.463 262.129 199.23C261.298 199.016 260.417 199.133 259.67 199.557C258.924 199.98 258.372 200.677 258.129 201.5L258.139 201.53Z" fill="#545454"/>
<path d="M266.42 210.14C267.352 210.621 268.247 211.169 269.1 211.78C269.56 212.1 269.1 211.73 269.32 211.94L269.92 212.44C270.306 212.787 270.686 213.147 271.06 213.52C272.407 214.835 273.52 216.37 274.35 218.06C274.57 218.48 274.78 218.9 274.98 219.33C275.4 220.24 274.87 219.04 275.08 219.57C275.17 219.82 275.27 220.06 275.35 220.31C275.697 221.29 275.978 222.292 276.19 223.31C276.24 223.57 276.29 223.83 276.33 224.09C276.43 224.65 276.27 223.33 276.33 224.31C276.38 224.84 276.43 225.36 276.44 225.88C276.45 226.4 276.44 226.82 276.44 227.3C276.44 227.56 276.44 227.82 276.39 228.08C276.34 228.34 276.28 229.08 276.39 228.47C276.15 230.21 276.81 231.96 278.66 232.47C280.18 232.88 282.42 231.95 282.66 230.2C284.05 219.95 279.03 209.3 269.66 204.49C268.909 204.077 268.029 203.969 267.201 204.186C266.373 204.404 265.66 204.932 265.21 205.66C264.784 206.407 264.669 207.292 264.887 208.123C265.106 208.955 265.642 209.668 266.38 210.11L266.42 210.14Z" fill="#545454"/>
<path d="M210.759 178.25C212.197 175.487 214.463 173.242 217.239 171.83C218.617 171.064 220.09 170.482 221.619 170.1C223.139 169.652 224.707 169.39 226.289 169.32C234.609 168.86 242.559 172.41 249.819 176.09C263.379 182.96 276.899 191.61 283.649 205.68C287.649 214.04 288.999 223.47 289.579 232.68C289.597 233.536 289.945 234.352 290.551 234.958C291.157 235.564 291.973 235.912 292.829 235.93C293.689 235.922 294.511 235.577 295.119 234.969C295.727 234.361 296.071 233.539 296.079 232.68C295.499 223.56 294.239 214.31 290.739 205.81C287.379 197.731 282.149 190.564 275.479 184.9C268.998 179.503 261.906 174.884 254.349 171.14C246.099 166.88 237.199 162.8 227.729 162.8C218.859 162.8 209.429 166.88 205.139 174.99C204.724 175.74 204.614 176.621 204.832 177.449C205.05 178.278 205.579 178.991 206.309 179.44C207.057 179.865 207.941 179.981 208.773 179.762C209.605 179.543 210.318 179.008 210.759 178.27V178.25Z" fill="#545454"/>
<path d="M194.169 218.33C194.718 222.606 194.331 226.951 193.036 231.064C191.741 235.176 189.569 238.959 186.669 242.15C186.076 242.766 185.744 243.589 185.744 244.445C185.744 245.3 186.076 246.123 186.669 246.74C187.281 247.342 188.105 247.68 188.964 247.68C189.823 247.68 190.647 247.342 191.259 246.74C194.77 242.954 197.427 238.458 199.05 233.557C200.674 228.656 201.226 223.463 200.669 218.33C200.646 217.475 200.296 216.661 199.692 216.057C199.087 215.452 198.274 215.102 197.419 215.08C195.829 215.08 193.959 216.57 194.169 218.33Z" fill="#545454"/>
<path d="M217.858 214.32C216.036 215.795 214.543 217.636 213.476 219.723C212.408 221.811 211.789 224.099 211.658 226.44C211.666 227.299 212.011 228.121 212.619 228.729C213.227 229.337 214.049 229.682 214.908 229.69C215.764 229.669 216.579 229.32 217.184 228.715C217.789 228.11 218.138 227.295 218.158 226.44C218.158 226.13 218.158 225.83 218.248 225.52L218.138 226.39C218.298 225.225 218.608 224.086 219.058 223L218.728 223.78C219.207 222.651 219.829 221.589 220.578 220.62L220.068 221.28C220.764 220.391 221.566 219.591 222.458 218.9C222.769 218.602 223.017 218.245 223.189 217.85C223.361 217.455 223.452 217.03 223.458 216.6C223.46 216.172 223.376 215.749 223.214 215.354C223.051 214.959 222.811 214.601 222.509 214.299C222.207 213.997 221.848 213.757 221.453 213.594C221.059 213.431 220.635 213.348 220.208 213.35L219.348 213.46C218.805 213.613 218.309 213.902 217.908 214.3L217.858 214.32Z" fill="#545454"/>
<path d="M191.919 186.21C186.309 187.74 182.179 191.92 178.919 196.57C175.708 201.334 173.025 206.434 170.919 211.78C166.469 222.65 164.199 234.3 163.149 245.96C162.578 252.56 162.361 259.186 162.499 265.81C162.569 269.99 169.069 270 168.999 265.81C168.629 244.23 171.249 221.68 182.589 202.81C183.927 200.444 185.549 198.252 187.419 196.28C189.09 194.462 191.228 193.137 193.599 192.45C197.599 191.35 195.919 185.08 191.869 186.18L191.919 186.21Z" fill="#545454"/>
</g>
<path d="M226.19 76.4399H226.18C139.869 76.4399 69.9004 146.409 69.9004 232.72V354.38C69.9004 440.691 139.869 510.66 226.18 510.66H226.19C312.501 510.66 382.47 440.691 382.47 354.38V232.72C382.47 146.409 312.501 76.4399 226.19 76.4399Z" stroke="#555454" stroke-width="7" stroke-miterlimit="10"/>
<path d="M448.88 226.19C448.88 103.202 349.178 3.5 226.19 3.5C103.202 3.5 3.5 103.202 3.5 226.19V360.91C3.5 483.898 103.202 583.6 226.19 583.6C349.178 583.6 448.88 483.898 448.88 360.91V226.19Z" stroke="#555454" stroke-width="7" stroke-miterlimit="10"/>
<path d="M416.058 373.599C416.556 374.169 416.776 374.833 416.718 375.591C416.659 376.349 416.341 376.972 415.761 377.459C415.182 377.946 414.509 378.16 413.741 378.101C412.973 378.042 412.34 377.727 411.842 377.157C411.344 376.587 411.124 375.923 411.183 375.165C411.241 374.408 411.56 373.785 412.139 373.298C412.718 372.811 413.392 372.597 414.16 372.656C414.928 372.715 415.561 373.029 416.058 373.599Z" fill="#555454"/>
<path d="M398.949 399.129C400.593 399.094 402.096 398.943 403.458 398.676L419.115 395.594C420.445 395.329 421.885 394.885 423.436 394.262L421.947 400.416C420.389 400.431 418.886 400.582 417.438 400.869L404.146 403.489L414.771 411.894C415.661 412.594 416.929 413.415 418.574 414.358L417.403 419.2C416.387 417.997 415.309 416.944 414.169 416.04L401.651 406.143C400.563 405.282 399.295 404.461 397.848 403.679L398.949 399.129Z" fill="#555454"/>
<path d="M393.943 416.703C395.236 417.526 396.578 418.206 397.97 418.745L410.718 423.68C412.128 424.226 413.588 424.63 415.097 424.891L410.793 436.08L407.936 434.974C408.755 433.68 409.434 432.332 409.974 430.93L410.772 428.855C410.238 428.541 409.668 428.267 409.06 428.032L403.961 426.058L403.109 428.273C402.57 429.675 402.171 431.131 401.912 432.642L398.62 431.367C399.439 430.074 400.118 428.726 400.658 427.324L401.51 425.109L396.312 423.097C395.705 422.862 395.103 422.672 394.504 422.526L393.048 426.311C392.48 427.788 392.081 429.244 391.851 430.68L388.993 429.574L393.943 416.703Z" fill="#555454"/>
<path d="M387.232 433.925C388.412 434.913 389.666 435.769 390.991 436.492L403.054 443.072C404.38 443.795 405.778 444.385 407.248 444.843L405.003 448.951C403.293 448.889 401.774 448.961 400.446 449.166L386.912 451.26L395.9 456.163C397.155 456.847 398.553 457.438 400.094 457.934L397.979 461.803C396.798 460.815 395.545 459.96 394.22 459.237L382.157 452.657C380.831 451.934 379.433 451.343 377.963 450.885L380.121 446.937C381.786 446.996 383.305 446.925 384.678 446.722L398.385 444.687L389.239 439.698C387.913 438.975 386.515 438.385 385.045 437.927L387.232 433.925Z" fill="#555454"/>
<path d="M362.585 471.765L365.999 467.274C366.582 468.144 367.092 468.77 367.53 469.153C366.992 466.935 367.549 464.739 369.202 462.565C370.866 460.375 372.866 459.232 375.202 459.135C377.253 459.048 379.596 460.006 382.232 462.01L388.909 467.085C390.112 467.999 391.405 468.794 392.789 469.469L389.339 474.008C388.374 472.898 387.27 471.87 386.028 470.926L379.398 465.887C377.599 464.519 376.093 463.789 374.881 463.697C373.143 463.57 371.784 464.151 370.804 465.441C369.859 466.683 369.627 468.071 370.108 469.605C370.511 470.892 371.641 472.24 373.496 473.651L380.15 478.708C381.376 479.641 382.653 480.423 383.982 481.056L380.622 485.475C379.609 484.328 378.506 483.301 377.311 482.393L366.441 474.13C365.247 473.222 363.962 472.434 362.585 471.765Z" fill="#555454"/>
<path d="M354.651 479.523C356.174 477.991 358.116 476.924 360.477 476.322L364.34 480.161L364.234 480.268C363.222 479.924 362.245 479.737 361.304 479.704C359.323 479.625 357.691 480.232 356.408 481.523C355.626 482.311 355.257 483.263 355.303 484.381C355.349 485.484 355.759 486.42 356.532 487.188C357.412 488.063 358.848 488.291 360.842 487.875L363.938 487.229C366.871 486.618 369.09 487.06 370.594 488.555C372.027 489.979 372.51 491.615 372.042 493.463C371.692 494.85 370.94 496.126 369.783 497.289C368.62 498.46 367.222 499.363 365.59 499.997L362.408 496.835L362.514 496.729C364.73 497.28 366.454 496.936 367.688 495.694C368.111 495.268 368.364 494.815 368.448 494.333C368.58 493.562 368.376 492.908 367.837 492.373C367.135 491.675 365.9 491.512 364.133 491.886L361.291 492.489C357.736 493.243 355.1 492.766 353.383 491.06C351.949 489.636 351.297 487.923 351.425 485.921C351.559 483.685 352.635 481.553 354.651 479.523Z" fill="#555454"/>
<path d="M345.251 506.002C345.153 506.752 344.801 507.356 344.194 507.814C343.587 508.272 342.91 508.445 342.161 508.333C341.413 508.221 340.806 507.858 340.342 507.243C339.879 506.628 339.696 505.945 339.794 505.195C339.892 504.444 340.244 503.84 340.851 503.382C341.458 502.924 342.135 502.751 342.884 502.863C343.632 502.975 344.239 503.339 344.702 503.954C345.166 504.568 345.349 505.251 345.251 506.002Z" fill="#555454"/>
<path d="M303.309 516.093L308.307 513.476C308.465 514.511 308.661 515.295 308.895 515.828C309.349 513.591 310.786 511.839 313.205 510.572C315.642 509.296 317.938 509.11 320.094 510.014C321.988 510.806 323.703 512.668 325.239 515.601L329.13 523.032C329.831 524.37 330.664 525.638 331.631 526.837L326.58 529.482C326.177 528.067 325.614 526.668 324.89 525.286L321.027 517.909C319.978 515.906 318.925 514.606 317.867 514.008C316.348 513.155 314.87 513.105 313.435 513.857C312.052 514.58 311.253 515.739 311.037 517.331C310.856 518.668 311.306 520.368 312.388 522.433L316.265 529.837C316.979 531.201 317.804 532.452 318.738 533.589L313.82 536.164C313.389 534.696 312.826 533.297 312.13 531.968L305.796 519.872C305.1 518.543 304.271 517.283 303.309 516.093Z" fill="#555454"/>
<path d="M297.513 518.258C297.774 519.766 298.176 521.219 298.718 522.618L303.646 535.352C304.188 536.751 304.869 538.096 305.691 539.387L300.514 541.391C300.252 539.883 299.85 538.43 299.309 537.031L294.38 524.297C293.838 522.898 293.157 521.553 292.335 520.262L297.513 518.258Z" fill="#555454"/>
<path d="M287.309 519.417C286.733 521.009 286.337 522.463 286.121 523.779L282.622 545.398C282.381 546.887 282.281 548.394 282.32 549.92L277.086 551.372C277.643 549.899 278.039 548.445 278.274 547.009L281.773 525.391C281.99 524.043 282.091 522.536 282.075 520.869L287.309 519.417Z" fill="#555454"/>
<path d="M246.189 530.467L251.782 529.728C251.574 530.754 251.489 531.558 251.525 532.138C252.721 530.194 254.673 529.043 257.38 528.685C260.107 528.325 262.327 528.939 264.041 530.529C265.547 531.924 266.517 534.263 266.951 537.545L268.05 545.86C268.248 547.358 268.594 548.835 269.09 550.293L263.437 551.041C263.546 549.573 263.498 548.066 263.294 546.519L262.203 538.264C261.906 536.023 261.364 534.44 260.576 533.515C259.443 532.191 258.073 531.636 256.466 531.848C254.919 532.053 253.77 532.865 253.02 534.286C252.391 535.479 252.229 537.231 252.534 539.542L253.629 547.827C253.831 549.354 254.175 550.812 254.661 552.201L249.158 552.928C249.259 551.401 249.211 549.894 249.014 548.407L247.225 534.871C247.028 533.383 246.683 531.915 246.189 530.467Z" fill="#555454"/>
<path d="M242.616 530.551C241.699 531.475 240.719 532.624 239.674 533.998L233.928 541.554L239.857 549.692C240.984 551.238 241.934 552.41 242.707 553.207L235.82 553.234C235.184 551.676 234.488 550.339 233.733 549.222L231.017 545.196L228.107 549.319C227.322 550.433 226.592 551.751 225.918 553.274L220.396 553.296C221.233 552.483 222.214 551.333 223.338 549.848L229.054 542.293L223.155 534.155C222.049 532.629 221.099 531.457 220.305 530.64L227.162 530.613C227.657 531.961 228.353 533.299 229.249 534.625L231.965 538.636L234.875 534.528C235.8 533.224 236.53 531.905 237.065 530.573L242.616 530.551Z" fill="#555454"/>
<path d="M197.515 531.673C196.415 531.523 195.431 531.632 194.563 531.998C193.407 532.487 192.478 533.118 191.777 533.89L194.642 539.096C195.079 539.892 195.768 540.354 196.71 540.482C197.74 540.623 198.656 540.348 199.456 539.66C200.304 538.917 200.818 537.892 200.996 536.583C201.176 535.255 200.909 534.139 200.195 533.234C199.498 532.342 198.605 531.821 197.515 531.673ZM182.634 527.301L189.369 528.217C189.557 529.283 189.846 530.276 190.236 531.197C190.705 530.787 191.177 530.437 191.65 530.148C193.368 529.1 195.565 528.758 198.241 529.122C200.927 529.487 202.961 530.451 204.343 532.012C205.715 533.581 206.265 535.362 205.994 537.355C205.72 539.367 204.682 540.871 202.881 541.867C202.182 542.257 201.375 542.51 200.461 542.628C202.545 544.002 203.45 545.7 203.174 547.722C202.925 549.556 201.956 550.892 200.266 551.733C199.085 552.329 197.582 552.503 195.759 552.255C193.955 552.009 192.437 551.439 191.206 550.545L191.825 545.996L191.974 546.016C192.829 548.192 194.138 549.4 195.903 549.64C196.596 549.734 197.194 549.573 197.695 549.157C198.218 548.723 198.54 548.06 198.662 547.168C198.801 546.148 198.562 545.343 197.945 544.754C197.15 544 196.236 543.552 195.206 543.412L191.385 542.892C191.088 541.812 190.499 540.46 189.62 538.836L188.93 537.561L188.6 537.986C187.695 539.144 186.973 540.555 186.434 542.218L181.245 541.512C182.48 540.378 183.628 539.136 184.69 537.787L187.217 534.572L185.521 531.57C184.724 530.159 183.761 528.736 182.634 527.301Z" fill="#555454"/>
<path d="M157.839 519.098C161.531 520.475 164.128 522.586 165.63 525.43C167.129 528.253 167.269 531.299 166.049 534.57C164.829 537.841 162.714 540.063 159.704 541.236C156.746 542.385 153.415 542.269 149.713 540.889C146.742 539.781 144.409 538.137 142.713 535.957L144.626 530.825L144.781 530.883C145.747 534.82 147.702 537.336 150.645 538.434C152.791 539.234 154.916 539.061 157.02 537.913C158.908 536.887 160.301 535.17 161.199 532.761C162.097 530.353 162.17 528.154 161.417 526.165C160.557 523.891 159.1 522.371 157.048 521.606C155.483 521.022 153.911 520.857 152.332 521.112L152.388 521.133L150.097 527.277L150.912 527.581C152.318 528.105 153.777 528.489 155.287 528.732L154.213 531.614L144.686 528.045L147.952 519.287C151.357 517.973 154.652 517.91 157.839 519.098Z" fill="#555454"/>
<path d="M144.058 513.618C143.07 514.787 142.215 516.029 141.491 517.343L134.9 529.301C134.176 530.615 133.583 532.001 133.122 533.46L127.34 530.274C124.975 528.97 123.413 527.39 122.655 525.533C121.9 523.689 122.037 521.835 123.066 519.969C124.089 518.112 125.59 517.014 127.569 516.677C128.137 516.579 128.725 516.549 129.332 516.587L128.689 509.174C128.555 507.615 128.294 506.13 127.908 504.717L133.545 507.824C133.33 509.396 133.287 510.903 133.418 512.345L133.915 518.033L135.36 518.83L137.446 515.045C138.151 513.766 138.712 512.385 139.13 510.902L144.058 513.618ZM134.086 521.142L133.034 520.563C131.896 519.935 130.819 519.776 129.803 520.084C128.734 520.409 127.885 521.14 127.258 522.279C126.596 523.479 126.432 524.605 126.766 525.657C127.095 526.718 127.794 527.543 128.863 528.132L129.822 528.661C130.188 528.143 130.532 527.59 130.856 527.003L134.086 521.142Z" fill="#555454"/>
<path d="M125.885 503.619C124.375 504.063 122.976 504.625 121.69 505.304L107.585 512.768C106.359 513.417 105.096 514.246 103.797 515.255L100.077 512.413C100.708 510.894 101.176 509.458 101.481 508.104L104.974 492.533C105.27 491.223 105.444 489.726 105.497 488.042L110.243 491.668C109.623 493.121 109.156 494.557 108.839 495.977L107.807 500.589L114.079 505.38L118.258 503.173C119.631 502.447 120.893 501.618 122.046 500.686L125.885 503.619ZM105.714 509.903L111.67 506.655L107.211 503.248L105.714 509.903Z" fill="#555454"/>
<path d="M91.5998 490.257L90.7468 489.404C89.8156 488.473 88.8204 488.018 87.7612 488.039C86.638 488.053 85.6144 488.522 84.6902 489.446C83.7164 490.42 83.2436 491.462 83.2721 492.571C83.2934 493.687 83.7377 494.678 84.6049 495.546L85.3833 496.324C85.8809 495.926 86.3679 495.489 86.8442 495.013L91.5998 490.257ZM103.329 485.778C102.05 486.631 100.877 487.591 99.8103 488.657L90.107 498.361C89.0407 499.427 88.0811 500.6 87.228 501.879L82.5363 497.188C80.617 495.268 79.5507 493.306 79.3374 491.302C79.1242 489.311 79.7746 487.559 81.2888 486.045C82.7958 484.538 84.5516 483.898 86.5563 484.126C88.5609 484.353 90.5122 485.416 92.4102 487.314L93.4765 488.38L96.5475 485.309C97.5853 484.271 98.513 483.095 99.3305 481.78L103.329 485.778Z" fill="#555454"/>
<path d="M89.6948 471.624C88.3193 472.294 87.0347 473.083 85.841 473.992L74.9783 482.265C73.7846 483.174 72.6818 484.202 71.67 485.35L68.3066 480.933C69.6821 480.263 70.9667 479.473 72.1604 478.564L76.5054 475.255L70.5968 467.496L66.2517 470.805C65.0501 471.72 63.9473 472.749 62.9433 473.89L59.589 469.486C60.9645 468.815 62.2491 468.026 63.4428 467.117L74.3055 458.844C75.4992 457.935 76.602 456.907 77.6138 455.759L80.9681 460.164C79.5926 460.834 78.308 461.624 77.1143 462.533L72.6857 465.905L78.5944 473.664L83.023 470.292C84.2167 469.383 85.3195 468.355 86.3314 467.207L89.6948 471.624Z" fill="#555454"/>
<path d="M74.4854 450.395C73.0436 450.908 71.6787 451.549 70.3909 452.319L58.6714 459.324C57.3836 460.094 56.1727 460.993 55.0388 462.02L52.1904 457.255C53.6322 456.743 54.997 456.102 56.2849 455.332L68.0044 448.326C69.2922 447.556 70.5031 446.658 71.637 445.63L74.4854 450.395Z" fill="#555454"/>
<path d="M55.9388 440.325L55.425 439.24C54.8642 438.055 54.084 437.296 53.0844 436.961C52.0273 436.599 50.9111 436.696 49.7359 437.252C48.4973 437.839 47.7058 438.656 47.3612 439.705C47.0076 440.758 47.0919 441.836 47.6142 442.939L48.083 443.928C48.6825 443.722 49.2851 443.475 49.8908 443.189L55.9388 440.325ZM68.4281 440.055C66.9436 440.426 65.5233 440.932 64.1673 441.574L51.8272 447.418C50.4712 448.06 49.1794 448.838 47.9517 449.751L45.1262 443.785C43.9704 441.344 43.628 439.148 44.0993 437.199C44.5657 435.262 45.7618 433.838 47.6874 432.926C49.6039 432.019 51.4633 432.007 53.2654 432.891C55.0676 433.776 56.5402 435.425 57.6833 437.838L58.3254 439.194L62.2308 437.345C63.5507 436.72 64.8138 435.928 66.02 434.969L68.4281 440.055Z" fill="#555454"/>
<path d="M56.8861 412.923C55.3579 413 53.8666 413.223 52.4122 413.592L39.1768 416.946C37.7224 417.315 36.3048 417.829 34.924 418.488L32.7642 409.965C31.7765 406.067 32.0534 402.783 33.5951 400.111C35.2549 397.214 37.578 395.387 40.5645 394.631C43.5994 393.861 46.5341 394.366 49.3686 396.145C51.9575 397.77 53.7434 400.521 54.7263 404.4L56.8861 412.923ZM53.0582 408.506L52.181 405.045C51.5962 402.737 50.2918 401.112 48.2679 400.17C46.2611 399.254 44.1184 399.085 41.8397 399.663C39.5514 400.243 37.7478 401.412 36.4288 403.17C35.0929 404.943 34.7198 406.993 35.3095 409.32L36.1793 412.753C36.8148 412.695 37.4331 412.59 38.0342 412.437L51.2696 409.083C51.9484 408.911 52.5445 408.719 53.0582 408.506Z" fill="#555454"/>
<path d="M51.1272 386.878C49.6003 386.745 48.0952 386.761 46.6121 386.926L33.0251 388.436C31.522 388.603 30.0409 388.918 28.5817 389.383L27.2309 377.471L30.2767 377.133C30.1474 378.658 30.1674 380.168 30.3366 381.66L30.5872 383.87C31.2056 383.902 31.8384 383.882 32.4854 383.81L37.9202 383.206L37.6527 380.848C37.4835 379.355 37.1649 377.879 36.697 376.419L40.2057 376.029C40.0764 377.555 40.0964 379.065 40.2656 380.557L40.5331 382.916L46.0724 382.3C46.7194 382.228 47.342 382.119 47.9402 381.972L47.4831 377.941C47.3048 376.369 46.9862 374.893 46.5274 373.513L49.5732 373.175L51.1272 386.878Z" fill="#555454"/>
<path d="M49.5263 363.316C49.5614 365.476 48.9708 367.612 47.7546 369.723L42.3088 369.811L42.3064 369.661C43.2589 369.175 44.075 368.607 44.7547 367.955C46.1931 366.592 46.8976 364.999 46.868 363.179C46.85 362.069 46.4248 361.141 45.5923 360.394C44.77 359.657 43.8138 359.297 42.7236 359.315C41.4835 359.335 40.3171 360.204 39.2245 361.923L37.5272 364.591C35.9175 367.119 34.0525 368.399 31.9322 368.434C29.9119 368.467 28.4034 367.671 27.4066 366.046C26.6566 364.828 26.2682 363.399 26.2416 361.758C26.2148 360.108 26.5435 358.477 27.2276 356.865L31.7132 356.793L31.7157 356.943C29.7744 358.145 28.818 359.621 28.8464 361.371C28.8561 361.971 29.0042 362.469 29.2908 362.864C29.7512 363.497 30.3615 363.807 31.1216 363.795C32.1118 363.779 33.0897 363.008 34.0553 361.481L35.6061 359.025C37.547 355.953 39.7276 354.397 42.148 354.357C44.1683 354.324 45.8508 355.052 47.1955 356.541C48.7029 358.197 49.4799 360.456 49.5263 363.316Z" fill="#555454"/>
<path d="M50.1992 348.719C48.6988 348.419 47.1984 348.269 45.698 348.269H32.0442C30.5438 348.269 29.0434 348.419 27.543 348.719V343.168C29.0434 343.468 30.5438 343.618 32.0442 343.618H45.698C47.1984 343.618 48.6988 343.468 50.1992 343.168V348.719ZM50.5039 327.004C50.5039 331.005 49.4172 334.225 47.2437 336.662C45.0906 339.09 42.2418 340.303 38.6973 340.303C35.1527 340.303 32.2887 339.079 30.1051 336.632C27.9621 334.225 26.8906 331.015 26.8906 327.004C26.8906 323.784 27.627 320.981 29.0996 318.594H34.6602V318.762C31.2578 321.077 29.5566 323.83 29.5566 327.019C29.5566 329.345 30.4758 331.305 32.3141 332.899C33.9594 334.331 36.0871 335.047 38.6973 335.047C41.3074 335.047 43.425 334.336 45.05 332.915C46.9086 331.29 47.8379 329.365 47.8379 327.141C47.8379 325.445 47.4367 323.891 46.6344 322.479V322.54H39.977V323.424C39.977 324.947 40.1293 326.47 40.434 327.994H37.3109L37.3262 317.665H46.8172C49.275 320.438 50.5039 323.551 50.5039 327.004ZM50.1992 314.009C48.6758 313.704 47.1523 313.552 45.6289 313.552H31.7656C30.2422 313.552 28.7187 313.704 27.1953 314.009V309.286C28.7391 308.514 30.0492 307.717 31.1258 306.894L42.0945 298.5H31.7656C30.3234 298.5 28.8 298.652 27.1953 298.957V294.509C28.7187 294.813 30.2422 294.966 31.7656 294.966H45.6289C47.1523 294.966 48.6758 294.813 50.1992 294.509V299.049C48.6961 299.8 47.3859 300.597 46.2687 301.44L35.1172 309.865H45.6289C47.1523 309.865 48.6758 309.713 50.1992 309.408V314.009ZM50.1992 290.548C48.6758 290.243 47.1574 290.091 45.6441 290.091H31.7809C30.2473 290.091 28.7187 290.243 27.1953 290.548V278.391H30.3031C29.9984 279.914 29.8461 281.438 29.8461 282.961V285.216C30.4656 285.317 31.1055 285.368 31.7656 285.368H37.3109V282.961C37.3109 281.438 37.1586 279.914 36.8539 278.391H40.434C40.1293 279.914 39.977 281.438 39.977 282.961V285.368H45.6289C46.2891 285.368 46.9289 285.327 47.5484 285.246V281.133C47.5484 279.528 47.3961 278.005 47.0914 276.563H50.1992V290.548ZM50.1992 274.125C48.6758 273.82 47.1523 273.668 45.6289 273.668H31.7656C30.2422 273.668 28.7187 273.82 27.1953 274.125V267.422C27.1953 264.68 27.8352 262.517 29.1148 260.932C30.3844 259.358 32.1008 258.571 34.2641 258.571C36.4172 258.571 38.1285 259.368 39.398 260.963C39.7637 261.42 40.0785 261.927 40.3426 262.486L46.6191 258.281C47.9395 257.398 49.1328 256.438 50.1992 255.402V261.938C48.6961 262.517 47.3352 263.217 46.1164 264.04L41.3023 267.27V268.945H45.6898C47.1727 268.945 48.6758 268.768 50.1992 268.412V274.125ZM38.6211 268.945V267.727C38.6211 266.406 38.2352 265.37 37.4633 264.619C36.6508 263.827 35.5844 263.431 34.2641 263.431C32.8727 263.431 31.791 263.837 31.0191 264.649C30.2371 265.462 29.8461 266.488 29.8461 267.727V268.839C30.4859 268.91 31.1461 268.945 31.8266 268.945H38.6211Z" fill="#555454"/>
<path d="M36.0231 219.556C35.5073 219.002 35.2664 218.346 35.3005 217.586C35.3346 216.827 35.6333 216.195 36.1967 215.689C36.7601 215.184 37.4265 214.948 38.1959 214.983C38.9654 215.017 39.608 215.312 40.1238 215.865C40.6397 216.419 40.8805 217.076 40.8464 217.835C40.8124 218.595 40.5136 219.227 39.9502 219.733C39.3869 220.238 38.7205 220.473 37.951 220.439C37.1816 220.404 36.539 220.11 36.0231 219.556Z" fill="#555454"/>
<path d="M52.3259 193.467C50.6801 193.56 49.1797 193.765 47.8246 194.081L32.2397 197.718C30.916 198.03 29.4874 198.525 27.9538 199.203L29.2589 193.004C30.8179 192.934 32.3184 192.729 33.7602 192.39L46.9904 189.299L36.0982 181.284C35.1851 180.618 33.8908 179.843 32.2154 178.96L33.2422 174.083C34.2958 175.248 35.4069 176.261 36.5755 177.123L49.408 186.559C50.524 187.38 51.8182 188.154 53.2908 188.884L52.3259 193.467Z" fill="#555454"/>
<path d="M56.6618 175.735C55.3458 174.954 53.9848 174.317 52.5788 173.823L39.6979 169.294C38.273 168.793 36.803 168.435 35.288 168.221L39.2591 156.925L42.1467 157.94C41.366 159.256 40.7268 160.622 40.2292 162.038L39.4927 164.133C40.0351 164.429 40.613 164.685 41.2264 164.901L46.3788 166.712L47.165 164.476C47.6627 163.061 48.0188 161.595 48.2333 160.08L51.5597 161.25C50.779 162.566 50.1398 163.931 49.6421 165.347L48.8559 167.583L54.1073 169.43C54.7207 169.645 55.3285 169.816 55.9306 169.943L57.2742 166.122C57.7984 164.631 58.1545 163.165 58.3425 161.726L61.2301 162.741L56.6618 175.735Z" fill="#555454"/>
<path d="M62.9418 158.378C61.7369 157.435 60.4644 156.626 59.1245 155.951L46.9309 149.807C45.5909 149.132 44.1835 148.591 42.7085 148.184L44.8013 144.03C46.5012 144.035 48.0068 143.915 49.3183 143.668L62.6858 141.146L53.6009 136.568C52.3324 135.929 50.9249 135.388 49.3785 134.945L51.3498 131.032C52.5547 131.976 53.8271 132.785 55.1671 133.46L67.3607 139.603C68.7006 140.278 70.1081 140.819 71.5831 141.226L69.5713 145.22C67.9161 145.214 66.4105 145.335 65.0543 145.582L51.5125 148.05L60.7582 152.708C62.0982 153.383 63.5056 153.924 64.9806 154.331L62.9418 158.378Z" fill="#555454"/>
<path d="M86.3118 119.717L83.043 124.315C82.4329 123.464 81.9031 122.854 81.4534 122.486C82.0618 124.685 81.5749 126.898 79.9926 129.124C78.3988 131.366 76.4363 132.572 74.1053 132.744C72.058 132.896 69.685 132.013 66.9866 130.095L60.1507 125.235C58.9197 124.36 57.6017 123.607 56.1968 122.976L59.5004 118.329C60.5005 119.408 61.6364 120.4 62.9082 121.304L69.6952 126.129C71.5377 127.439 73.0659 128.121 74.28 128.174C76.0209 128.245 77.3608 127.621 78.2997 126.3C79.2038 125.028 79.3914 123.634 78.8625 122.116C78.4178 120.843 77.2456 119.531 75.3461 118.181L68.5347 113.338C67.2792 112.446 65.9775 111.704 64.6297 111.114L67.8464 106.59C68.8954 107.704 70.0313 108.695 71.2542 109.565L82.3824 117.476C83.6053 118.345 84.9151 119.092 86.3118 119.717Z" fill="#555454"/>
<path d="M94.0415 111.747C92.5727 113.327 90.6709 114.456 88.3361 115.134L84.3568 111.427L84.4588 111.318C85.48 111.627 86.4603 111.783 87.3998 111.785C89.378 111.798 90.9859 111.139 92.2236 109.808C92.9784 108.996 93.3146 108.033 93.2321 106.919C93.1501 105.819 92.7108 104.898 91.9142 104.156C91.008 103.311 89.5676 103.13 87.5931 103.611L84.5262 104.358C81.6203 105.063 79.3927 104.694 77.8433 103.251C76.367 101.876 75.8321 100.258 76.2384 98.3983C76.5413 97.0016 77.2504 95.7034 78.3656 94.5037C79.4876 93.2966 80.8521 92.3496 82.459 91.6625L85.7368 94.7157L85.6348 94.8255C83.4067 94.347 81.6977 94.7479 80.5077 96.0281C80.0996 96.467 79.862 96.9281 79.7946 97.4113C79.6882 98.1858 79.9128 98.8318 80.4682 99.3492C81.1917 100.023 82.4287 100.145 84.179 99.7142L86.9935 99.019C90.5151 98.1498 93.1602 98.539 94.9288 100.186C96.405 101.562 97.1121 103.251 97.05 105.254C96.9892 107.491 95.9863 109.655 94.0415 111.747Z" fill="#555454"/>
<path d="M102.544 84.9459C102.618 84.1927 102.951 83.5776 103.543 83.1006C104.135 82.6237 104.807 82.4292 105.559 82.5172C106.31 82.6051 106.928 82.949 107.411 83.5487C107.894 84.1485 108.099 84.825 108.025 85.5782C107.951 86.3314 107.618 86.9465 107.026 87.4235C106.434 87.9005 105.762 88.095 105.011 88.007C104.259 87.919 103.642 87.5751 103.158 86.9754C102.675 86.3756 102.47 85.6992 102.544 84.9459Z" fill="#555454"/>
<path d="M144.133 73.5088L139.222 76.2859C139.031 75.2565 138.81 74.4795 138.559 73.9548C138.177 76.205 136.797 78.0022 134.42 79.3465C132.026 80.7006 129.737 80.9609 127.553 80.1273C125.634 79.3967 123.86 77.5904 122.23 74.7085L118.102 67.4078C117.358 66.0931 116.484 64.8522 115.479 63.6852L120.442 60.8785C120.89 62.28 121.498 63.6599 122.266 65.0182L126.365 72.2666C127.478 74.2343 128.573 75.4997 129.65 76.0628C131.196 76.8662 132.674 76.8691 134.085 76.0714C135.443 75.3032 136.205 74.1199 136.369 72.5214C136.507 71.1795 136.002 69.4943 134.854 67.4656L130.74 60.1911C129.982 58.8502 129.118 57.6268 128.148 56.5207L132.98 53.7878C133.457 55.2416 134.065 56.6215 134.804 57.9275L141.525 69.8123C142.264 71.1183 143.133 72.3505 144.133 73.5088Z" fill="#555454"/>
<path d="M149.884 71.1771C149.574 69.6741 149.125 68.2298 148.537 66.8439L143.191 54.2329C142.604 52.8471 141.878 51.5198 141.013 50.2511L146.144 48.0848C146.454 49.5878 146.903 51.0321 147.49 52.4179L152.836 65.0289C153.424 66.4148 154.15 67.742 155.014 69.0108L149.884 71.1771Z" fill="#555454"/>
<path d="M160.018 69.6765C160.542 68.0664 160.89 66.6002 161.064 65.2778L163.859 43.5573C164.051 42.0613 164.103 40.5516 164.014 39.0282L169.198 37.4066C168.69 38.8968 168.341 40.363 168.153 41.8053L165.358 63.5259C165.184 64.8799 165.132 66.3896 165.202 68.055L160.018 69.6765Z" fill="#555454"/>
<path d="M200.741 57.3083L195.175 58.2268C195.349 57.1943 195.409 56.3887 195.354 55.8097C194.221 57.7911 192.307 59.0041 189.613 59.4487C186.899 59.8965 184.66 59.3535 182.897 57.8197C181.346 56.4737 180.302 54.1673 179.763 50.9006L178.397 42.6252C178.151 41.135 177.757 39.6691 177.215 38.2277L182.841 37.2994C182.779 38.7695 182.875 40.2743 183.13 41.8139L184.485 50.0301C184.853 52.2605 185.446 53.8254 186.264 54.7246C187.439 56.0108 188.826 56.5219 190.425 56.2581C191.964 56.0041 193.087 55.1549 193.791 53.7106C194.382 52.4979 194.487 50.7418 194.108 48.4423L192.747 40.1965C192.496 38.6766 192.106 37.2305 191.575 35.8582L197.053 34.9543C197.001 36.4836 197.097 37.9884 197.341 39.4688L199.564 52.9404C199.809 54.4208 200.201 55.8767 200.741 57.3083Z" fill="#555454"/>
<path d="M204.235 56.9807C205.137 56.0415 206.099 54.8759 207.122 53.4838L212.748 45.8326L206.688 37.7919C205.537 36.2646 204.568 35.1087 203.782 34.3244L210.669 34.1824C211.33 35.7298 212.047 37.056 212.82 38.1608L215.601 42.1413L218.445 37.9698C219.213 36.8432 219.922 35.5127 220.572 33.9782L226.093 33.8644C225.269 34.6919 224.307 35.8575 223.206 37.3613L217.61 45.0119L223.64 53.0532C224.771 54.5609 225.74 55.7168 226.546 56.5207L219.689 56.6621C219.172 55.3218 218.455 53.9957 217.538 52.6837L214.757 48.7182L211.913 52.8747C211.009 54.1942 210.3 55.5248 209.787 56.8663L204.235 56.9807Z" fill="#555454"/>
<path d="M249.387 55.0484C250.492 55.1629 251.471 55.0231 252.327 54.6291C253.467 54.1038 254.376 53.4437 255.051 52.649L252.021 47.5379C251.559 46.7559 250.856 46.3158 249.911 46.2178C248.876 46.1105 247.97 46.4138 247.192 47.1276C246.368 47.8969 245.888 48.9383 245.751 50.2516C245.613 51.5848 245.916 52.6922 246.659 53.5738C247.383 54.4434 248.293 54.9349 249.387 55.0484ZM264.4 58.9432L257.639 58.2421C257.417 57.1833 257.097 56.1998 256.678 55.2915C256.222 55.7168 255.761 56.0814 255.297 56.3853C253.614 57.4879 251.43 57.9 248.743 57.6214C246.047 57.3418 243.983 56.444 242.551 54.9278C241.131 53.4028 240.524 51.6404 240.731 49.6405C240.941 47.6208 241.93 46.0842 243.698 45.0306C244.385 44.6191 245.183 44.3398 246.093 44.1928C243.966 42.8862 243.007 41.218 243.218 39.1883C243.409 37.3477 244.335 35.9805 245.996 35.0868C247.158 34.4531 248.655 34.2311 250.485 34.421C252.296 34.6087 253.831 35.1299 255.09 35.9845L254.616 40.5513L254.467 40.5358C253.543 38.3885 252.196 37.2231 250.425 37.0394C249.728 36.9672 249.137 37.1472 248.649 37.5794C248.14 38.0294 247.839 38.7021 247.746 39.5975C247.64 40.6223 247.904 41.4191 248.539 41.9877C249.359 42.7163 250.286 43.1342 251.32 43.2415L255.156 43.6392C255.487 44.7094 256.119 46.042 257.049 47.6369L257.779 48.8892L258.096 48.4544C258.963 47.2671 259.64 45.8339 260.126 44.1546L265.334 44.6946C264.136 45.8677 263.029 47.1456 262.01 48.5284L259.587 51.822L261.378 54.7682C262.22 56.1528 263.227 57.5444 264.4 58.9432Z" fill="#555454"/>
<path d="M289.436 66.3276C285.701 65.0705 283.037 63.0448 281.444 60.2503C279.855 57.4779 279.617 54.4374 280.73 51.1288C281.844 47.8202 283.886 45.5312 286.857 44.2618C289.777 43.0176 293.109 43.0257 296.854 44.2859C299.859 45.2973 302.244 46.8652 304.01 48.9896L302.263 54.18L302.106 54.1274C301.014 50.2241 298.979 47.7715 296.002 46.7697C293.831 46.0391 291.713 46.2813 289.647 47.4963C287.793 48.5823 286.456 50.3435 285.636 52.7799C284.817 55.2163 284.815 57.4163 285.632 59.3798C286.565 61.6252 288.069 63.0972 290.145 63.7959C291.729 64.3287 293.305 64.4424 294.875 64.1369L294.818 64.1178L296.909 57.9035L296.085 57.6259C294.663 57.1473 293.193 56.811 291.675 56.6168L292.656 53.7016L302.293 56.9605L299.311 65.8199C295.951 67.2431 292.659 67.4123 289.436 66.3276Z" fill="#555454"/>
<path d="M303.395 71.3584C304.343 70.1579 305.158 68.8893 305.84 67.5525L312.041 55.388C312.722 54.0513 313.27 52.6464 313.684 51.1733L319.566 54.1715C321.972 55.3981 323.584 56.9271 324.402 58.7586C325.215 60.5767 325.138 62.4349 324.17 64.3331C323.207 66.2223 321.742 67.3674 319.775 67.7681C319.211 67.8845 318.624 67.9337 318.016 67.9155L318.898 75.3036C319.083 76.8574 319.391 78.3338 319.823 79.7329L314.089 76.8096C314.253 75.2318 314.247 73.7242 314.07 72.2868L313.389 66.6181L311.919 65.8685L309.957 69.7184C309.293 71.0195 308.777 72.4179 308.407 73.9137L303.395 71.3584ZM313.118 63.5158L314.188 64.0609C315.346 64.6515 316.428 64.7762 317.432 64.4351C318.491 64.0765 319.316 63.3179 319.906 62.1594C320.528 60.9385 320.656 59.8077 320.288 58.767C319.925 57.7173 319.2 56.9154 318.113 56.3612L317.137 55.8638C316.788 56.3934 316.462 56.9568 316.157 57.5539L313.118 63.5158Z" fill="#555454"/>
<path d="M321.876 80.7744C323.371 80.2817 324.751 79.6756 326.015 78.9561L339.874 71.0457C341.079 70.3576 342.315 69.4886 343.581 68.4389L347.39 71.1607C346.807 72.6989 346.385 74.1494 346.125 75.5122L343.13 91.1866C342.876 92.5051 342.75 94.0069 342.751 95.6917L337.892 92.2198C338.464 90.7478 338.886 89.2973 339.157 87.8683L340.041 83.2254L333.62 78.6368L329.514 80.9766C328.165 81.7461 326.929 82.615 325.807 83.5834L321.876 80.7744ZM341.836 73.849L335.987 77.2856L340.553 80.5482L341.836 73.849Z" fill="#555454"/>
<path d="M356.61 93.0738L357.488 93.9021C358.446 94.8063 359.454 95.2327 360.513 95.1811C361.637 95.1347 362.647 94.6365 363.545 93.6863C364.492 92.685 364.935 91.6305 364.875 90.5228C364.822 89.4078 364.349 88.4293 363.456 87.5872L362.655 86.8313C362.169 87.2435 361.694 87.6944 361.232 88.1841L356.61 93.0738ZM345.004 97.8858C346.259 96.9965 347.405 96.0037 348.442 94.9073L357.872 84.9306C358.908 83.8342 359.835 82.6343 360.651 81.3309L365.479 85.8866C367.454 87.7503 368.577 89.681 368.847 91.6787C369.118 93.6622 368.517 95.4324 367.045 96.9892C365.581 98.5387 363.843 99.2284 361.831 99.0583C359.819 98.8883 357.836 97.8817 355.883 96.0388L354.786 95.0034L351.801 98.1609C350.793 99.228 349.898 100.43 349.118 101.768L345.004 97.8858Z" fill="#555454"/>
<path d="M359.07 111.598C360.423 110.884 361.682 110.053 362.846 109.106L373.437 100.49C374.601 99.5428 375.67 98.4796 376.645 97.2999L380.148 101.606C378.795 102.32 377.537 103.151 376.373 104.098L372.136 107.544L378.291 115.11L382.527 111.663C383.699 110.71 384.768 109.647 385.735 108.473L389.229 112.768C387.876 113.482 386.617 114.313 385.453 115.26L374.862 123.876C373.698 124.823 372.629 125.886 371.654 127.066L368.16 122.771C369.513 122.057 370.772 121.227 371.936 120.28L376.254 116.767L370.099 109.201L365.781 112.714C364.617 113.661 363.548 114.725 362.574 115.904L359.07 111.598Z" fill="#555454"/>
<path d="M374.961 132.334C376.385 131.775 377.729 131.091 378.991 130.28L390.48 122.902C391.742 122.091 392.924 121.154 394.024 120.09L397.024 124.762C395.599 125.32 394.256 126.004 392.993 126.815L381.505 134.193C380.242 135.004 379.061 135.941 377.961 137.005L374.961 132.334Z" fill="#555454"/>
<path d="M393.823 141.808L394.372 142.875C394.971 144.041 395.775 144.775 396.785 145.077C397.853 145.405 398.966 145.272 400.122 144.678C401.341 144.052 402.106 143.209 402.416 142.15C402.736 141.087 402.617 140.012 402.059 138.926L401.559 137.952C400.966 138.178 400.372 138.444 399.776 138.75L393.823 141.808ZM381.349 142.481C382.821 142.062 384.224 141.51 385.559 140.824L397.704 134.585C399.038 133.9 400.304 133.081 401.502 132.128L404.519 138C405.753 140.403 406.166 142.586 405.758 144.55C405.354 146.5 404.204 147.962 402.309 148.936C400.423 149.905 398.565 149.976 396.735 149.151C394.906 148.325 393.38 146.725 392.16 144.349L391.474 143.014L387.631 144.989C386.332 145.656 385.095 146.488 383.92 147.485L381.349 142.481Z" fill="#555454"/>
<path d="M393.743 169.196C395.272 169.064 396.76 168.787 398.206 168.365L411.368 164.527C412.814 164.105 414.219 163.538 415.582 162.827L418.019 171.312C419.134 175.193 418.961 178.502 417.501 181.24C415.93 184.21 413.659 186.127 410.689 186.994C407.671 187.874 404.713 187.471 401.815 185.784C399.167 184.244 397.289 181.543 396.18 177.682L393.743 169.196ZM397.721 173.497L398.711 176.944C399.371 179.241 400.73 180.827 402.79 181.702C404.831 182.551 406.984 182.644 409.25 181.983C411.526 181.32 413.296 180.081 414.563 178.268C415.845 176.44 416.154 174.367 415.488 172.05L414.507 168.633C413.872 168.714 413.255 168.841 412.657 169.015L399.496 172.854C398.821 173.051 398.229 173.266 397.721 173.497Z" fill="#555454"/>
<path d="M400.464 195.053C401.993 195.14 403.495 195.079 404.971 194.87L418.49 192.958C419.986 192.747 421.455 192.388 422.897 191.881L424.625 203.729L421.594 204.157C421.675 202.63 421.607 201.125 421.39 199.64L421.07 197.443C420.451 197.429 419.82 197.468 419.176 197.559L413.769 198.324L414.111 200.669C414.327 202.154 414.692 203.618 415.206 205.061L411.715 205.554C411.795 204.027 411.727 202.522 411.511 201.037L411.169 198.691L405.657 199.471C405.013 199.562 404.395 199.69 403.802 199.854L404.387 203.863C404.615 205.427 404.98 206.89 405.482 208.254L402.452 208.683L400.464 195.053Z" fill="#555454"/>
<path d="M402.713 218.482C402.635 216.323 403.183 214.176 404.357 212.042L409.8 211.845L409.806 211.995C408.863 212.5 408.058 213.084 407.392 213.749C405.981 215.141 405.308 216.747 405.374 218.566C405.414 219.676 405.857 220.596 406.705 221.326C407.541 222.046 408.505 222.387 409.594 222.347C410.834 222.303 411.983 221.41 413.041 219.67L414.685 216.969C416.244 214.41 418.083 213.092 420.202 213.016C422.221 212.943 423.745 213.708 424.774 215.313C425.548 216.516 425.965 217.937 426.024 219.577C426.084 221.226 425.788 222.863 425.136 224.488L420.653 224.65L420.647 224.5C422.564 223.26 423.491 221.765 423.428 220.016C423.406 219.416 423.248 218.921 422.954 218.531C422.481 217.908 421.864 217.61 421.105 217.637C420.115 217.673 419.153 218.464 418.218 220.009L416.716 222.495C414.837 225.606 412.687 227.205 410.268 227.293C408.249 227.366 406.553 226.671 405.178 225.21C403.638 223.584 402.817 221.341 402.713 218.482Z" fill="#555454"/>
<path d="M402.17 232.931C403.67 233.231 405.171 233.381 406.671 233.381H420.325C421.825 233.381 423.326 233.231 424.826 232.931V238.482C423.326 238.182 421.825 238.032 420.325 238.032H406.671C405.171 238.032 403.67 238.182 402.17 238.482V232.931ZM401.865 254.646C401.865 250.645 402.952 247.425 405.125 244.988C407.279 242.56 410.127 241.347 413.672 241.347C417.216 241.347 420.08 242.57 422.264 245.018C424.407 247.425 425.479 250.635 425.479 254.646C425.479 257.866 424.742 260.669 423.27 263.056H417.709V262.888C421.111 260.572 422.813 257.82 422.813 254.631C422.813 252.305 421.893 250.345 420.055 248.751C418.41 247.319 416.282 246.602 413.672 246.602C411.062 246.602 408.944 247.313 407.319 248.735C405.461 250.36 404.531 252.285 404.531 254.509C404.531 256.205 404.932 257.759 405.735 259.171V259.11H412.392V258.226C412.392 256.703 412.24 255.179 411.935 253.656H415.058L415.043 263.985H405.552C403.094 261.212 401.865 258.099 401.865 254.646ZM402.17 267.641C403.693 267.946 405.217 268.098 406.74 268.098H420.604C422.127 268.098 423.65 267.946 425.174 267.641V272.364C423.63 273.136 422.32 273.933 421.243 274.756L410.275 283.15H420.604C422.046 283.15 423.569 282.997 425.174 282.693V287.141C423.65 286.836 422.127 286.684 420.604 286.684H406.74C405.217 286.684 403.693 286.836 402.17 287.141V282.601C403.673 281.85 404.983 281.052 406.1 280.21L417.252 271.785H406.74C405.217 271.785 403.693 271.937 402.17 272.242V267.641ZM402.17 291.102C403.693 291.407 405.212 291.559 406.725 291.559H420.588C422.122 291.559 423.65 291.407 425.174 291.102V303.259H422.066C422.371 301.736 422.523 300.212 422.523 298.689V296.434C421.904 296.333 421.264 296.282 420.604 296.282H415.058V298.689C415.058 300.212 415.211 301.736 415.515 303.259H411.935C412.24 301.736 412.392 300.212 412.392 298.689V296.282H406.74C406.08 296.282 405.44 296.322 404.821 296.404V300.517C404.821 302.122 404.973 303.645 405.278 305.087H402.17V291.102ZM402.17 307.525C403.693 307.829 405.217 307.982 406.74 307.982H420.604C422.127 307.982 423.65 307.829 425.174 307.525V314.228C425.174 316.97 424.534 319.133 423.254 320.718C421.985 322.292 420.268 323.079 418.105 323.079C415.952 323.079 414.241 322.282 412.971 320.687C412.605 320.23 412.291 319.722 412.027 319.164L405.75 323.369C404.43 324.252 403.236 325.212 402.17 326.248V319.712C403.673 319.133 405.034 318.433 406.253 317.61L411.067 314.38V312.704H406.679C405.196 312.704 403.693 312.882 402.17 313.238V307.525ZM413.748 312.704V313.923C413.748 315.244 414.134 316.279 414.906 317.031C415.718 317.823 416.785 318.219 418.105 318.219C419.496 318.219 420.578 317.813 421.35 317.001C422.132 316.188 422.523 315.162 422.523 313.923V312.811C421.883 312.74 421.223 312.704 420.543 312.704H413.748Z" fill="#555454"/>
</g>
<defs>
<clipPath id="clip0_1639_16012">
<rect width="453" height="588" fill="white"/>
</clipPath>
</defs>
</svg>
