<svg width="453" height="588" viewBox="0 0 453 588" fill="none" xmlns="http://www.w3.org/2000/svg">
<mask id="mask0_1631_15943" style="mask-type:luminance" maskUnits="userSpaceOnUse" x="49" y="98" width="354" height="354">
<path d="M226.19 451.49C323.585 451.49 402.54 372.535 402.54 275.14C402.54 177.745 323.585 98.79 226.19 98.79C128.794 98.79 49.8398 177.745 49.8398 275.14C49.8398 372.535 128.794 451.49 226.19 451.49Z" fill="white"/>
</mask>
<g mask="url(#mask0_1631_15943)">
<path d="M285.34 267.73L291.06 257.38L293.92 252.2L295.11 250.05C295.34 249.61 295.58 249.18 295.82 248.75C295.95 248.51 296.08 248.27 296.23 248.03C295.64 248.73 294.76 248.8 293.6 248.24C293.968 248.726 294.38 249.178 294.83 249.59C295.285 250.199 295.706 250.833 296.09 251.49C296.89 252.8 297.57 254.18 298.24 255.56C299.552 258.506 301.189 261.297 303.12 263.88C304.918 265.94 306.929 267.804 309.12 269.44C310.12 270.22 311.04 271 311.95 271.84C312.42 272.28 312.89 272.74 313.33 273.22C313.54 273.46 313.75 273.7 313.95 273.95C313.6 273.51 314.13 274.21 314.19 274.3C314.526 274.807 314.817 275.342 315.06 275.9C314.81 275.29 315.15 276.26 315.16 276.3C315.25 276.61 315.33 276.92 315.39 277.23C315.29 276.66 315.39 277.9 315.39 277.86C315.39 278.25 315.39 278.65 315.39 279.04C315.39 279.84 315.3 280.63 315.26 281.43C315.104 283.109 315.25 284.802 315.69 286.43C316.305 288.075 317.251 289.576 318.47 290.84C319.18 291.68 318.08 290.47 318.8 291.26C318.98 291.6 319.01 291.63 318.89 291.33C318.908 291.174 318.966 291.026 319.06 290.9C319.06 290.57 318.82 291.17 319.06 290.96C318.79 291.24 318.52 291.52 318.24 291.78C316.982 292.994 315.562 294.027 314.02 294.85C311.068 296.455 307.76 297.291 304.4 297.28C300.22 297.28 300.21 303.78 304.4 303.78C308.359 303.758 312.266 302.874 315.85 301.19C317.567 300.379 319.184 299.373 320.67 298.19C322.3 297.079 323.699 295.663 324.79 294.02C325.309 293.068 325.554 291.991 325.495 290.908C325.437 289.825 325.079 288.78 324.46 287.89C323.932 287.147 323.361 286.436 322.75 285.76C322.41 285.361 322.152 284.899 321.99 284.4C321.863 283.741 321.819 283.069 321.86 282.4C321.86 281.47 321.96 280.55 322.01 279.63C322.152 277.82 321.959 276 321.44 274.26C319.34 267.97 313.23 265.09 308.92 260.57C304.34 255.76 303.25 247.91 297.92 243.34C295.4 241.17 292.33 242.09 290.63 244.71C289.34 246.71 288.29 248.94 287.13 251.04L279.76 264.41C277.76 268.07 283.34 271.35 285.37 267.69L285.34 267.73Z" fill="white"/>
<path d="M284.609 268.72C271.519 254.24 253.889 243.05 234.309 240.38C214.459 237.67 193.819 243.74 180.199 258.82C173.199 266.62 168.419 275.82 164.569 285.54C162.569 290.54 160.779 295.54 158.369 300.29C156.395 304.244 153.969 307.955 151.139 311.35C145.428 318.17 138.272 323.636 130.189 327.35C126.29 329.122 122.209 330.463 118.019 331.35C115.843 331.805 113.643 332.139 111.429 332.35C108.734 332.559 106.059 332.977 103.429 333.6C98.3191 334.95 93.7891 338.19 91.9091 343.27C91.1411 345.495 91.1317 347.912 91.8826 350.142C92.6334 352.373 94.1021 354.292 96.0591 355.6C99.3391 357.93 103.809 358.6 107.739 358.39C112.827 358.028 117.82 356.818 122.509 354.81C125.113 353.76 127.637 352.52 130.059 351.1C133.649 348.97 130.389 343.34 126.779 345.49C122.552 348.006 117.966 349.864 113.179 351C111.949 351.29 110.719 351.52 109.469 351.73C108.759 351.85 109.909 351.73 109.349 351.73L108.719 351.79C108.239 351.837 107.759 351.867 107.279 351.88C106.358 351.905 105.436 351.875 104.519 351.79H104.149C104.519 351.85 103.869 351.74 103.789 351.72C103.269 351.62 102.789 351.51 102.249 351.37C101.709 351.23 101.459 351.12 101.069 350.98C100.679 350.84 101.469 351.18 101.009 350.98L100.479 350.71C100.129 350.52 99.8091 350.32 99.4791 350.1C99.1491 349.88 99.9691 350.61 99.3491 349.99L98.8391 349.49C98.7791 349.43 98.3991 348.98 98.6391 349.28C98.8791 349.58 98.5291 349.11 98.4791 349.03C98.4291 348.95 98.2891 348.7 98.1991 348.54C98.3391 348.98 97.9391 348.11 98.1991 348.54C97.8883 347.837 97.7809 347.061 97.8891 346.3C98.0087 345.591 98.2633 344.912 98.6391 344.3C99.1323 343.477 99.7573 342.741 100.489 342.12C102.072 340.908 103.913 340.077 105.869 339.69C110.499 338.59 115.329 338.57 119.989 337.56C132.824 334.677 144.508 328.034 153.549 318.48C156.567 315.28 159.248 311.779 161.549 308.03C164.142 303.606 166.353 298.969 168.159 294.17C170.029 289.49 171.739 284.74 173.909 280.17C175.916 275.904 178.309 271.83 181.059 268C186.279 260.724 193.283 254.914 201.399 251.13C209.565 247.493 218.47 245.822 227.399 246.25C245.399 246.92 262.309 255.9 275.199 268.34C276.859 269.94 278.459 271.607 279.999 273.34C280.298 273.653 280.656 273.904 281.053 274.077C281.45 274.25 281.878 274.342 282.311 274.347C282.744 274.353 283.173 274.271 283.575 274.108C283.976 273.945 284.34 273.704 284.647 273.398C284.953 273.092 285.196 272.728 285.36 272.327C285.524 271.926 285.606 271.497 285.601 271.064C285.597 270.631 285.506 270.203 285.334 269.806C285.162 269.408 284.912 269.049 284.599 268.75L284.609 268.72Z" fill="white"/>
<path d="M157.179 327.12C159.258 329.365 160.614 332.184 161.069 335.21C161.569 338.37 160.569 341.78 159.699 345.03C158.699 348.63 158.059 352.6 159.289 356.23C159.826 357.956 160.817 359.505 162.157 360.717C163.497 361.929 165.139 362.759 166.909 363.12C171.129 363.84 174.169 361.44 176.279 358C177.929 355.33 179.459 352.58 180.999 349.85C184.229 344.14 187.439 338.4 191.169 333.01C195.039 327.43 199.829 322.01 205.449 318.17C206.176 317.718 206.701 317.004 206.917 316.176C207.133 315.348 207.023 314.469 206.609 313.72C206.17 312.982 205.458 312.447 204.627 312.23C203.796 312.013 202.914 312.132 202.169 312.56C191.499 319.85 184.439 330.73 178.119 341.75C176.549 344.49 175.009 347.25 173.439 349.99C172.729 351.24 172.009 352.48 171.269 353.72C170.879 354.38 170.499 355.08 170.039 355.72C169.781 356.12 169.44 356.461 169.039 356.72C169.479 356.47 168.639 356.84 168.569 356.85C169.189 356.74 168.179 356.85 168.119 356.85C168.739 356.91 167.709 356.72 167.669 356.71C166.899 356.46 167.869 356.94 167.199 356.48C166.769 356.239 166.393 355.912 166.094 355.52C165.795 355.128 165.579 354.679 165.459 354.2C164.559 351.28 165.659 348.08 166.459 345.03C167.697 341.067 167.941 336.86 167.169 332.78C166.311 328.965 164.446 325.45 161.769 322.6C161.159 321.99 160.332 321.647 159.469 321.647C158.607 321.647 157.779 321.99 157.169 322.6C156.559 323.21 156.217 324.037 156.217 324.9C156.217 325.763 156.559 326.59 157.169 327.2L157.179 327.12Z" fill="white"/>
<path d="M260.66 312.2C273.39 319.42 278.99 333.95 281.15 347.95C281.83 352.36 281.68 357.16 284 361.12C284.82 362.51 287 363.34 288.45 362.28C295.45 357.1 300.45 349.54 299.7 340.51C298.87 331.16 293.35 323.51 290.63 314.7C289.33 310.53 288.53 305.81 290.33 301.7C290.739 300.951 290.846 300.073 290.629 299.247C290.411 298.421 289.886 297.71 289.16 297.26C287.78 296.45 285.43 296.81 284.72 298.42C280.92 307.06 283.72 316.05 287.42 324.21C290.71 331.47 295.31 339.76 292.28 347.88C290.749 351.397 288.291 354.431 285.17 356.66L289.62 357.83C288.859 356.372 288.409 354.771 288.3 353.13C288.06 350.97 287.81 348.82 287.49 346.66C286.901 342.598 286.005 338.587 284.81 334.66C282.618 327.195 278.823 320.297 273.69 314.45C270.88 311.333 267.588 308.686 263.94 306.61C260.3 304.54 257.02 310.15 260.66 312.22V312.2Z" fill="white"/>
<path d="M199.058 446.2C198.808 425.75 198.808 405.25 200.818 384.87C201.77 374.9 203.337 364.997 205.508 355.22C207.418 346.71 209.738 337.96 213.438 330.22C216.868 323.07 221.648 316.08 228.508 312.12C229.944 311.202 231.639 310.774 233.338 310.9C235.103 311.256 236.735 312.09 238.058 313.31C241.258 316.13 243.398 320.06 244.998 323.96C246.818 328.41 248.218 333.05 249.658 337.64C251.192 342.493 252.645 347.363 254.018 352.25C256.772 362.037 259.218 371.903 261.358 381.85C265.626 401.599 268.659 421.594 270.438 441.72C270.668 444.26 270.868 446.79 271.058 449.32C271.076 450.176 271.424 450.993 272.03 451.598C272.636 452.204 273.452 452.552 274.308 452.57C275.168 452.562 275.99 452.217 276.598 451.609C277.206 451.002 277.55 450.18 277.558 449.32C276.006 428.111 273.11 407.022 268.888 386.18C266.802 375.827 264.375 365.55 261.608 355.35C258.898 345.35 255.978 335.25 252.488 325.45C249.488 316.93 244.228 305.83 234.068 304.45C228.908 303.77 224.478 306.6 220.658 309.75C217.277 312.609 214.333 315.948 211.918 319.66C207.068 326.91 204.018 335.32 201.688 343.66C198.873 353.984 196.784 364.494 195.438 375.11C192.658 396.03 192.318 417.18 192.438 438.25C192.438 440.88 192.438 443.51 192.518 446.13C192.518 450.31 199.068 450.32 199.018 446.13L199.058 446.2Z" fill="white"/>
<path d="M176.429 361.12C171.583 380.328 168.745 399.986 167.959 419.78C167.732 425.42 167.679 431.06 167.799 436.7C167.879 440.87 174.379 440.89 174.299 436.7C173.887 417.317 175.509 397.945 179.139 378.9C180.172 373.513 181.359 368.163 182.699 362.85C183.699 358.8 177.459 357.06 176.429 361.12Z" fill="white"/>
<path d="M261.898 331.31C268.453 345.093 273.609 359.498 277.288 374.31C281.033 389.397 283.914 404.685 285.918 420.1C287.088 428.61 288.068 437.1 288.998 445.68C289.021 446.535 289.371 447.348 289.975 447.953C290.58 448.558 291.393 448.907 292.248 448.93C293.858 448.93 295.688 447.44 295.498 445.68C293.778 429.93 291.868 414.18 289.098 398.56C286.479 383.069 282.668 367.804 277.698 352.9C274.811 344.423 271.408 336.131 267.508 328.07C267.298 327.692 267.014 327.36 266.674 327.093C266.333 326.826 265.943 326.629 265.526 326.515C265.108 326.401 264.672 326.371 264.243 326.428C263.814 326.484 263.401 326.626 263.028 326.844C262.654 327.062 262.328 327.353 262.068 327.699C261.809 328.045 261.621 328.44 261.515 328.86C261.41 329.279 261.39 329.716 261.456 330.143C261.521 330.571 261.672 330.981 261.898 331.35V331.31Z" fill="white"/>
<path d="M264.699 223.3C264.769 228.94 265.509 235.42 270.419 239.01C271.657 239.787 272.978 240.421 274.359 240.9C273.959 240.73 275.599 241.68 274.899 241.09C275.019 241.19 275.099 241.61 275.019 241.29C274.939 240.97 275.019 242.16 275.019 241.96C274.687 243.528 274.208 245.061 273.589 246.54C273.009 248.16 272.359 249.757 271.639 251.33C271.229 252.078 271.12 252.955 271.336 253.781C271.552 254.606 272.075 255.318 272.799 255.77C274.199 256.59 276.519 256.21 277.249 254.61C278.938 251.232 280.278 247.69 281.249 244.04C281.812 242.079 281.638 239.981 280.759 238.14C279.723 236.504 278.144 235.286 276.299 234.7C275.799 234.522 275.308 234.319 274.829 234.09C274.54 233.945 274.263 233.778 273.999 233.59C273.819 233.46 273.829 233.47 274.049 233.59C273.926 233.494 273.813 233.387 273.709 233.27C273.629 233.19 273.089 232.58 273.249 232.79C273.409 233 272.949 232.32 272.889 232.21C272.729 231.94 272.589 231.66 272.449 231.37C272.359 231.18 272.309 231.08 272.449 231.37C272.389 231.22 272.329 231.07 272.279 230.91C272.063 230.281 271.883 229.64 271.739 228.99C271.669 228.66 271.599 228.33 271.549 227.99C271.549 227.82 271.489 227.65 271.469 227.48C271.469 227.72 271.469 227.72 271.469 227.48C271.309 226.07 271.259 224.65 271.239 223.24C271.189 219.06 264.689 219.05 264.739 223.24L264.699 223.3Z" fill="white"/>
<path d="M257.898 235.9C262.078 235.9 262.088 229.4 257.898 229.4C253.708 229.4 253.708 235.9 257.898 235.9Z" fill="white"/>
<path d="M258.139 201.53C255.914 207.529 251.896 212.697 246.629 216.33C240.489 220.48 232.579 221.91 227.539 227.67C226.008 229.283 224.861 231.22 224.182 233.337C223.504 235.455 223.311 237.698 223.619 239.9C223.889 241.64 226.069 242.6 227.619 242.17C228.438 241.921 229.13 241.367 229.552 240.623C229.975 239.879 230.095 239.001 229.889 238.17C229.9 237.953 229.9 237.737 229.889 237.52C229.889 237.41 229.949 236.6 229.889 236.9C229.99 236.179 230.192 235.475 230.489 234.81C231.116 233.462 231.999 232.25 233.089 231.24C235.479 228.92 238.829 227.48 241.959 226.08C245.208 224.736 248.3 223.039 251.179 221.02C257.271 216.551 261.877 210.352 264.399 203.23C264.624 202.399 264.511 201.512 264.086 200.763C263.661 200.015 262.958 199.464 262.129 199.23C261.298 199.016 260.417 199.133 259.67 199.557C258.924 199.98 258.372 200.677 258.129 201.5L258.139 201.53Z" fill="white"/>
<path d="M266.42 210.14C267.352 210.621 268.247 211.169 269.1 211.78C269.56 212.1 269.1 211.73 269.32 211.94L269.92 212.44C270.306 212.787 270.686 213.147 271.06 213.52C272.407 214.835 273.52 216.37 274.35 218.06C274.57 218.48 274.78 218.9 274.98 219.33C275.4 220.24 274.87 219.04 275.08 219.57C275.17 219.82 275.27 220.06 275.35 220.31C275.697 221.29 275.978 222.292 276.19 223.31C276.24 223.57 276.29 223.83 276.33 224.09C276.43 224.65 276.27 223.33 276.33 224.31C276.38 224.84 276.43 225.36 276.44 225.88C276.45 226.4 276.44 226.82 276.44 227.3C276.44 227.56 276.44 227.82 276.39 228.08C276.34 228.34 276.28 229.08 276.39 228.47C276.15 230.21 276.81 231.96 278.66 232.47C280.18 232.88 282.42 231.95 282.66 230.2C284.05 219.95 279.03 209.3 269.66 204.49C268.909 204.077 268.029 203.969 267.201 204.186C266.373 204.404 265.66 204.932 265.21 205.66C264.784 206.407 264.669 207.292 264.887 208.124C265.106 208.955 265.642 209.668 266.38 210.11L266.42 210.14Z" fill="white"/>
<path d="M210.759 178.25C212.197 175.487 214.463 173.242 217.239 171.83C218.617 171.064 220.09 170.482 221.619 170.1C223.139 169.652 224.707 169.39 226.289 169.32C234.609 168.86 242.559 172.41 249.819 176.09C263.379 182.96 276.899 191.61 283.649 205.68C287.649 214.04 288.999 223.47 289.579 232.68C289.597 233.536 289.945 234.353 290.551 234.958C291.157 235.564 291.973 235.912 292.829 235.93C293.689 235.922 294.511 235.577 295.119 234.969C295.727 234.362 296.071 233.54 296.079 232.68C295.499 223.56 294.239 214.31 290.739 205.81C287.379 197.731 282.149 190.565 275.479 184.9C268.998 179.503 261.906 174.885 254.349 171.14C246.099 166.88 237.199 162.8 227.729 162.8C218.859 162.8 209.429 166.88 205.139 174.99C204.724 175.74 204.614 176.621 204.832 177.45C205.05 178.278 205.579 178.991 206.309 179.44C207.057 179.865 207.941 179.981 208.773 179.762C209.605 179.544 210.318 179.008 210.759 178.27V178.25Z" fill="white"/>
<path d="M194.169 218.33C194.718 222.607 194.331 226.951 193.036 231.064C191.741 235.177 189.569 238.959 186.669 242.15C186.076 242.767 185.744 243.589 185.744 244.445C185.744 245.301 186.076 246.123 186.669 246.74C187.281 247.343 188.105 247.681 188.964 247.681C189.823 247.681 190.647 247.343 191.259 246.74C194.77 242.954 197.427 238.459 199.05 233.557C200.674 228.656 201.226 223.463 200.669 218.33C200.646 217.475 200.296 216.662 199.692 216.057C199.087 215.452 198.274 215.103 197.419 215.08C195.829 215.08 193.959 216.57 194.169 218.33Z" fill="white"/>
<path d="M217.858 214.32C216.036 215.796 214.543 217.636 213.476 219.724C212.408 221.811 211.789 224.099 211.658 226.44C211.666 227.3 212.011 228.122 212.619 228.729C213.227 229.337 214.049 229.682 214.908 229.69C215.764 229.67 216.579 229.321 217.184 228.716C217.789 228.11 218.138 227.296 218.158 226.44C218.158 226.13 218.158 225.83 218.248 225.52L218.138 226.39C218.298 225.225 218.608 224.086 219.058 223L218.728 223.78C219.207 222.652 219.829 221.59 220.578 220.62L220.068 221.28C220.764 220.391 221.566 219.592 222.458 218.9C222.769 218.602 223.017 218.245 223.189 217.85C223.361 217.455 223.452 217.03 223.458 216.6C223.46 216.173 223.376 215.75 223.214 215.355C223.051 214.96 222.811 214.601 222.509 214.299C222.207 213.997 221.848 213.758 221.453 213.595C221.059 213.432 220.635 213.349 220.208 213.35L219.348 213.46C218.805 213.613 218.309 213.902 217.908 214.3L217.858 214.32Z" fill="white"/>
<path d="M191.919 186.21C186.309 187.74 182.179 191.92 178.919 196.57C175.708 201.334 173.025 206.434 170.919 211.78C166.469 222.65 164.199 234.3 163.149 245.96C162.578 252.56 162.361 259.186 162.499 265.81C162.569 269.99 169.069 270 168.999 265.81C168.629 244.23 171.249 221.68 182.589 202.81C183.927 200.445 185.549 198.252 187.419 196.28C189.09 194.462 191.228 193.137 193.599 192.45C197.599 191.35 195.919 185.08 191.869 186.18L191.919 186.21Z" fill="white"/>
</g>
<path d="M226.19 76.44H226.18C139.869 76.44 69.9004 146.409 69.9004 232.72V354.38C69.9004 440.691 139.869 510.66 226.18 510.66H226.19C312.501 510.66 382.47 440.691 382.47 354.38V232.72C382.47 146.409 312.501 76.44 226.19 76.44Z" stroke="white" stroke-width="7" stroke-miterlimit="10"/>
<path d="M448.88 226.19C448.88 103.202 349.178 3.5 226.19 3.5C103.202 3.5 3.5 103.202 3.5 226.19V360.91C3.5 483.898 103.202 583.6 226.19 583.6C349.178 583.6 448.88 483.898 448.88 360.91V226.19Z" stroke="white" stroke-width="7" stroke-miterlimit="10"/>
<path d="M416.499 373.757C417 374.333 417.222 375.002 417.162 375.767C417.103 376.531 416.781 377.159 416.196 377.65C415.612 378.141 414.932 378.356 414.158 378.296C413.383 378.236 412.745 377.918 412.243 377.343C411.741 376.768 411.52 376.098 411.58 375.333C411.639 374.569 411.961 373.941 412.545 373.45C413.13 372.959 413.81 372.744 414.584 372.804C415.359 372.864 415.997 373.182 416.499 373.757Z" fill="white"/>
<path d="M398.226 399.318C399.888 399.291 401.408 399.146 402.784 398.881L418.615 395.837C419.96 395.575 421.416 395.132 422.983 394.508L421.475 400.737C419.901 400.744 418.381 400.889 416.917 401.173L403.478 403.762L414.215 412.332C415.116 413.045 416.397 413.883 418.059 414.847L416.873 419.748C415.846 418.524 414.757 417.451 413.605 416.53L400.955 406.438C399.855 405.561 398.573 404.723 397.111 403.923L398.226 399.318Z" fill="white"/>
<path d="M393.278 416.943C394.579 417.788 395.932 418.49 397.336 419.048L410.194 424.164C411.617 424.73 413.091 425.153 414.616 425.432L410.151 436.717L407.269 435.57C408.111 434.269 408.811 432.911 409.371 431.497L410.199 429.404C409.661 429.081 409.087 428.797 408.474 428.554L403.331 426.507L402.447 428.742C401.887 430.156 401.469 431.626 401.192 433.153L397.872 431.832C398.714 430.53 399.414 429.172 399.974 427.758L400.858 425.524L395.615 423.438C395.003 423.194 394.395 422.996 393.79 422.843L392.28 426.661C391.69 428.151 391.272 429.621 391.025 431.072L388.143 429.925L393.278 416.943Z" fill="white"/>
<path d="M387.278 434.617C388.462 435.609 389.72 436.467 391.051 437.193L403.164 443.8C404.495 444.527 405.899 445.12 407.377 445.581L405.103 449.694C403.382 449.63 401.853 449.7 400.517 449.904L386.89 451.987L395.915 456.91C397.175 457.597 398.579 458.191 400.128 458.69L397.986 462.565C396.802 461.573 395.544 460.714 394.213 459.988L382.1 453.381C380.769 452.655 379.364 452.062 377.887 451.601L380.073 447.647C381.748 447.709 383.277 447.639 384.659 447.437L398.46 445.414L389.275 440.405C387.944 439.678 386.54 439.085 385.062 438.624L387.278 434.617Z" fill="white"/>
<path d="M362.189 472.732L365.658 468.222C366.24 469.102 366.751 469.737 367.19 470.126C366.661 467.886 367.235 465.674 368.914 463.49C370.605 461.291 372.629 460.149 374.985 460.064C377.055 459.988 379.413 460.968 382.06 463.004L388.766 468.161C389.974 469.09 391.274 469.898 392.666 470.587L389.161 475.146C388.193 474.02 387.086 472.978 385.838 472.018L379.18 466.898C377.372 465.508 375.858 464.763 374.636 464.664C372.884 464.526 371.51 465.105 370.514 466.4C369.554 467.648 369.312 469.047 369.788 470.596C370.188 471.896 371.32 473.263 373.183 474.696L379.866 479.835C381.097 480.782 382.381 481.578 383.718 482.224L380.304 486.663C379.289 485.5 378.181 484.458 376.982 483.535L366.065 475.14C364.865 474.218 363.573 473.415 362.189 472.732Z" fill="white"/>
<path d="M354.12 480.528C355.666 478.992 357.632 477.929 360.017 477.338L363.888 481.236L363.78 481.343C362.762 480.99 361.778 480.794 360.829 480.755C358.832 480.662 357.182 481.263 355.879 482.557C355.084 483.346 354.706 484.304 354.745 485.431C354.784 486.544 355.191 487.491 355.966 488.271C356.847 489.159 358.295 489.4 360.308 488.993L363.435 488.362C366.398 487.766 368.633 488.226 370.14 489.744C371.576 491.19 372.052 492.844 371.567 494.704C371.206 496.101 370.438 497.382 369.264 498.548C368.082 499.721 366.667 500.623 365.017 501.252L361.828 498.041L361.935 497.934C364.166 498.506 365.908 498.169 367.161 496.925C367.591 496.499 367.849 496.043 367.937 495.558C368.075 494.781 367.874 494.12 367.333 493.576C366.63 492.867 365.385 492.695 363.6 493.06L360.73 493.649C357.139 494.386 354.484 493.888 352.763 492.156C351.327 490.709 350.68 488.977 350.823 486.959C350.973 484.705 352.072 482.561 354.12 480.528Z" fill="white"/>
<path d="M344.419 507.178C344.314 507.934 343.954 508.541 343.338 508.998C342.723 509.455 342.038 509.624 341.283 509.505C340.529 509.386 339.921 509.015 339.458 508.391C338.995 507.767 338.816 507.077 338.921 506.321C339.025 505.565 339.385 504.958 340.001 504.501C340.617 504.044 341.302 503.875 342.056 503.994C342.81 504.113 343.419 504.484 343.882 505.108C344.345 505.732 344.524 506.422 344.419 507.178Z" fill="white"/>
<path d="M301.986 517.016L307.051 514.423C307.201 515.468 307.391 516.261 307.622 516.8C308.101 514.548 309.567 512.795 312.019 511.54C314.489 510.275 316.806 510.109 318.972 511.041C320.875 511.857 322.587 513.752 324.109 516.725L327.964 524.255C328.659 525.611 329.488 526.898 330.451 528.116L325.332 530.737C324.939 529.306 324.385 527.89 323.667 526.489L319.84 519.012C318.801 516.983 317.75 515.661 316.689 515.049C315.164 514.174 313.674 514.11 312.22 514.854C310.819 515.572 310.002 516.732 309.769 518.336C309.574 519.683 310.012 521.402 311.083 523.495L314.925 530.998C315.633 532.382 316.453 533.651 317.384 534.806L312.4 537.358C311.98 535.873 311.425 534.457 310.735 533.109L304.459 520.851C303.769 519.504 302.945 518.225 301.986 517.016Z" fill="white"/>
<path d="M296.112 519.243C296.357 520.771 296.744 522.246 297.273 523.667L302.09 536.603C302.619 538.024 303.29 539.392 304.104 540.708L298.847 542.672C298.602 541.144 298.214 539.67 297.685 538.248L292.869 525.313C292.339 523.891 291.668 522.523 290.855 521.208L296.112 519.243Z" fill="white"/>
<path d="M285.543 519.37C284.946 520.974 284.532 522.441 284.301 523.77L280.562 545.602C280.305 547.106 280.189 548.63 280.215 550.173L274.902 551.586C275.479 550.102 275.893 548.636 276.144 547.186L279.883 525.354C280.116 523.993 280.231 522.469 280.23 520.783L285.543 519.37Z" fill="white"/>
<path d="M244.139 530.879L249.789 530.203C249.567 531.235 249.471 532.044 249.5 532.63C250.73 530.684 252.713 529.548 255.448 529.22C258.203 528.89 260.434 529.537 262.143 531.162C263.645 532.587 264.594 534.958 264.991 538.274L265.998 546.674C266.179 548.186 266.51 549.681 266.992 551.158L261.282 551.842C261.41 550.363 261.38 548.843 261.193 547.28L260.194 538.94C259.923 536.676 259.395 535.073 258.612 534.13C257.485 532.782 256.11 532.204 254.487 532.399C252.924 532.586 251.756 533.392 250.981 534.815C250.332 536.011 250.147 537.776 250.426 540.11L251.429 548.48C251.614 550.022 251.943 551.497 252.416 552.904L246.856 553.57C246.977 552.031 246.947 550.51 246.767 549.008L245.129 535.333C244.949 533.831 244.619 532.346 244.139 530.879Z" fill="white"/>
<path d="M240.429 530.86C239.501 531.788 238.507 532.943 237.447 534.326L231.621 541.923L237.568 550.156C238.698 551.72 239.652 552.905 240.429 553.712H233.482C232.847 552.138 232.15 550.786 231.394 549.656L228.67 545.585L225.719 549.732C224.921 550.852 224.18 552.179 223.494 553.712H217.925C218.772 552.895 219.766 551.74 220.906 550.247L226.702 542.649L220.785 534.416C219.675 532.873 218.722 531.687 217.925 530.86H224.841C225.335 532.222 226.031 533.574 226.929 534.916L229.653 538.972L232.604 534.84C233.543 533.529 234.284 532.202 234.829 530.86H240.429Z" fill="white"/>
<path d="M194.924 531.632C193.816 531.459 192.821 531.549 191.94 531.902C190.765 532.373 189.818 532.992 189.099 533.759L191.911 539.077C192.339 539.89 193.028 540.371 193.976 540.52C195.014 540.682 195.943 540.423 196.761 539.743C197.629 539.009 198.162 537.983 198.362 536.664C198.565 535.325 198.313 534.192 197.605 533.263C196.916 532.347 196.022 531.804 194.924 531.632ZM179.972 526.918L186.755 527.978C186.929 529.059 187.205 530.068 187.584 531.007C188.065 530.601 188.546 530.257 189.028 529.975C190.778 528.949 193 528.647 195.696 529.068C198.401 529.491 200.44 530.505 201.811 532.11C203.171 533.724 203.699 535.534 203.395 537.543C203.088 539.571 202.017 541.07 200.184 542.042C199.472 542.421 198.654 542.662 197.729 542.763C199.812 544.193 200.699 545.927 200.39 547.965C200.11 549.813 199.111 551.145 197.393 551.96C196.192 552.54 194.672 552.686 192.835 552.399C191.019 552.115 189.496 551.509 188.267 550.58L188.962 545.995L189.111 546.018C189.941 548.234 191.244 549.481 193.021 549.759C193.72 549.868 194.325 549.717 194.837 549.306C195.372 548.878 195.708 548.215 195.844 547.316C196 546.287 195.771 545.469 195.158 544.861C194.366 544.083 193.451 543.613 192.413 543.451L188.564 542.849C188.281 541.752 187.708 540.374 186.845 538.715L186.169 537.413L185.829 537.835C184.898 538.989 184.148 540.4 183.578 542.07L178.352 541.254C179.615 540.132 180.793 538.899 181.886 537.557L184.486 534.358L182.82 531.29C182.037 529.849 181.087 528.391 179.972 526.918Z" fill="white"/>
<path d="M155.078 518.323C158.779 519.773 161.363 521.945 162.829 524.839C164.294 527.71 164.384 530.785 163.099 534.064C161.814 537.342 159.644 539.547 156.589 540.68C153.586 541.789 150.229 541.617 146.518 540.163C143.541 538.996 141.215 537.299 139.541 535.072L141.557 529.929L141.712 529.989C142.62 533.976 144.549 536.547 147.499 537.703C149.65 538.546 151.796 538.406 153.937 537.284C155.858 536.281 157.292 534.573 158.238 532.159C159.184 529.744 159.294 527.528 158.568 525.51C157.738 523.202 156.295 521.644 154.238 520.838C152.669 520.223 151.087 520.031 149.49 520.262L149.546 520.284L147.133 526.441L147.95 526.762C149.36 527.314 150.824 527.725 152.343 527.995L151.211 530.884L141.663 527.126L145.104 518.348C148.559 517.079 151.884 517.071 155.078 518.323Z" fill="white"/>
<path d="M141.218 512.54C140.202 513.702 139.317 514.939 138.563 516.251L131.702 528.192C130.948 529.504 130.325 530.892 129.834 532.355L124.06 529.037C121.698 527.68 120.151 526.059 119.42 524.172C118.692 522.3 118.864 520.432 119.934 518.568C121 516.714 122.534 515.634 124.535 515.33C125.11 515.241 125.703 515.221 126.315 515.27L125.8 507.783C125.692 506.208 125.456 504.706 125.091 503.274L130.721 506.509C130.475 508.09 130.406 509.609 130.511 511.066L130.91 516.811L132.354 517.64L134.525 513.861C135.259 512.584 135.85 511.201 136.298 509.713L141.218 512.54ZM131.027 519.95L129.977 519.347C128.84 518.693 127.757 518.513 126.727 518.806C125.643 519.114 124.774 519.836 124.12 520.973C123.432 522.172 123.246 523.305 123.564 524.372C123.877 525.447 124.567 526.292 125.634 526.905L126.592 527.455C126.97 526.939 127.327 526.388 127.664 525.802L131.027 519.95Z" fill="white"/>
<path d="M123.061 502.118C121.529 502.538 120.108 503.078 118.798 503.738L104.431 510.997C103.182 511.628 101.893 512.44 100.564 513.433L96.8662 510.496C97.5322 508.976 98.0314 507.537 98.3638 506.177L102.183 490.541C102.506 489.226 102.711 487.719 102.796 486.022L107.513 489.768C106.861 491.222 106.361 492.661 106.015 494.087L104.887 498.719L111.121 503.67L115.377 501.523C116.775 500.817 118.065 500.005 119.245 499.087L123.061 502.118ZM102.599 508.072L108.667 504.91L104.235 501.389L102.599 508.072Z" fill="white"/>
<path d="M88.9376 487.748L88.1021 486.875C87.1899 485.922 86.2034 485.444 85.1426 485.443C84.0178 485.433 82.9829 485.881 82.0377 486.786C81.0416 487.741 80.5459 488.774 80.5503 489.886C80.5476 491.004 80.9709 492.007 81.8204 492.895L82.5828 493.691C83.0896 493.303 83.5866 492.876 84.0737 492.409L88.9376 487.748ZM100.777 483.515C99.4776 484.342 98.2826 485.278 97.192 486.323L87.2679 495.833C86.1773 496.879 85.1912 498.033 84.3095 499.296L79.7139 494.495C77.8339 492.531 76.8088 490.542 76.6387 488.529C76.4682 486.531 77.1573 484.79 78.7059 483.305C80.2472 481.828 82.0189 481.225 84.0209 481.497C86.0229 481.768 87.9535 482.875 89.8126 484.817L90.857 485.908L93.9979 482.898C95.0594 481.881 96.0135 480.722 96.8604 479.423L100.777 483.515Z" fill="white"/>
<path d="M87.8981 468.537C86.4932 469.185 85.1772 469.956 83.95 470.85L72.7826 478.984C71.5554 479.878 70.417 480.895 69.3675 482.035L66.0806 477.48C67.4855 476.832 68.8015 476.061 70.0287 475.167L74.4957 471.914L68.7215 463.911L64.2545 467.164C63.0191 468.064 61.8807 469.081 60.8394 470.215L57.5614 465.672C58.9663 465.025 60.2823 464.254 61.5095 463.36L72.677 455.226C73.9042 454.332 75.0425 453.315 76.092 452.175L79.37 456.718C77.9652 457.365 76.6491 458.136 75.4219 459.03L70.869 462.346L76.6433 470.349L81.1962 467.033C82.4234 466.139 83.5617 465.122 84.6112 463.982L87.8981 468.537Z" fill="white"/>
<path d="M72.2832 447.299C70.8122 447.78 69.4157 448.392 68.0939 449.137L56.0653 455.911C54.7435 456.656 53.4963 457.532 52.3236 458.541L49.5635 453.653C51.0346 453.173 52.431 452.561 53.7528 451.816L65.7814 445.042C67.1032 444.297 68.3505 443.42 69.5231 442.412L72.2832 447.299Z" fill="white"/>
<path d="M53.7535 436.739L53.2607 435.633C52.7227 434.426 51.9536 433.642 50.9534 433.281C49.8958 432.891 48.768 432.963 47.57 433.497C46.3074 434.06 45.4903 434.866 45.1184 435.915C44.7374 436.968 44.7974 438.057 45.2984 439.182L45.7481 440.191C46.3574 439.997 46.9708 439.762 47.5883 439.487L53.7535 436.739ZM66.3538 436.757C64.8483 437.097 63.4044 437.575 62.022 438.191L49.4427 443.797C48.0604 444.413 46.7396 445.167 45.4805 446.059L42.7699 439.977C41.6611 437.489 41.3669 435.267 41.8874 433.312C42.4027 431.37 43.6419 429.962 45.6048 429.087C47.5585 428.217 49.4338 428.248 51.2305 429.181C53.0272 430.115 54.4739 431.812 55.5704 434.273L56.1864 435.655L60.1676 433.881C61.5131 433.281 62.8051 432.512 64.0437 431.573L66.3538 436.757Z" fill="white"/>
<path d="M55.3509 409.074C53.8081 409.114 52.2988 409.302 50.823 409.637L37.3933 412.688C35.9175 413.024 34.4753 413.506 33.0665 414.137L31.1017 405.489C30.2032 401.534 30.5645 398.229 32.1858 395.574C33.9319 392.694 36.3201 390.91 39.3504 390.221C42.4299 389.522 45.3764 390.104 48.1901 391.969C50.76 393.671 52.492 396.491 53.3861 400.426L55.3509 409.074ZM51.6015 404.525L50.8035 401.013C50.2715 398.671 48.9969 397 46.9796 396C44.9789 395.026 42.8225 394.802 40.5105 395.328C38.1886 395.855 36.3407 396.989 34.9667 398.729C33.5754 400.483 33.1479 402.541 33.6844 404.902L34.4757 408.385C35.1178 408.342 35.7439 408.252 36.3539 408.113L49.7836 405.062C50.4723 404.906 51.0783 404.727 51.6015 404.525Z" fill="white"/>
<path d="M50.0653 382.614C48.5313 382.444 47.0155 382.425 45.5179 382.557L31.7986 383.759C30.2809 383.892 28.7815 384.176 27.3003 384.609L26.2457 372.579L29.3212 372.309C29.1518 373.843 29.1332 375.364 29.2654 376.872L29.461 379.103C30.0829 379.15 30.7205 379.144 31.3738 379.087L36.8615 378.606L36.6527 376.224C36.5205 374.716 36.2376 373.222 35.8039 371.741L39.3468 371.43C39.1775 372.964 39.1589 374.485 39.291 375.993L39.4999 378.375L45.0931 377.884C45.7464 377.827 46.3761 377.731 46.9821 377.597L46.6253 373.527C46.4861 371.939 46.2031 370.444 45.7765 369.044L48.852 368.774L50.0653 382.614Z" fill="white"/>
<path d="M50.1621 358.713C50.1621 360.892 49.5315 363.036 48.2703 365.145H42.7767V364.993C43.7453 364.519 44.5776 363.959 45.2738 363.313C46.7468 361.961 47.4833 360.367 47.4833 358.531C47.4833 357.411 47.0697 356.468 46.2424 355.701C45.4251 354.944 44.4666 354.566 43.3669 354.566C42.1158 354.566 40.9253 355.424 39.7953 357.139L38.0397 359.802C36.375 362.325 34.4732 363.586 32.3342 363.586C30.2962 363.586 28.7879 362.759 27.8092 361.104C27.0727 359.863 26.7044 358.415 26.7044 356.76C26.7044 355.096 27.0626 353.456 27.7789 351.842H32.304V351.993C30.3265 353.174 29.3377 354.647 29.3377 356.412C29.3377 357.018 29.479 357.522 29.7615 357.926C30.2155 358.571 30.8259 358.894 31.5927 358.894C32.5915 358.894 33.5904 358.133 34.5892 356.609L36.1934 354.157C38.2012 351.09 40.4259 349.557 42.8675 349.557C44.9055 349.557 46.5904 350.318 47.9222 351.842C49.4154 353.537 50.1621 355.827 50.1621 358.713ZM49.8594 346.954C48.3228 346.646 46.7861 346.493 45.2495 346.493H31.2663C29.7296 346.493 28.193 346.646 26.6564 346.954V341.268C28.193 341.576 29.7296 341.729 31.2663 341.729H45.2495C46.7861 341.729 48.3228 341.576 49.8594 341.268V346.954ZM50.1667 324.934C50.1667 328.97 49.0706 332.217 46.8783 334.676C44.7066 337.124 41.8331 338.349 38.2579 338.349C34.6827 338.349 31.7938 337.114 29.5913 334.645C27.4298 332.217 26.3491 328.98 26.3491 324.934C26.3491 321.687 27.0918 318.859 28.5772 316.452H34.1858V316.621C30.7541 318.956 29.0382 321.733 29.0382 324.949C29.0382 327.295 29.9653 329.272 31.8194 330.881C33.479 332.325 35.6251 333.047 38.2579 333.047C40.8906 333.047 43.0265 332.33 44.6656 330.896C46.5403 329.257 47.4776 327.316 47.4776 325.072C47.4776 323.361 47.073 321.794 46.2637 320.37V320.432H39.5486V321.323C39.5486 322.859 39.7023 324.396 40.0096 325.933H36.8596L36.8749 315.514H46.4481C48.9272 318.311 50.1667 321.451 50.1667 324.934ZM49.8594 311.827C48.3228 311.519 46.7861 311.366 45.2495 311.366H31.2663C29.7296 311.366 28.193 311.519 26.6564 311.827V307.063C28.2135 306.284 29.535 305.48 30.6209 304.651L41.6846 296.184H31.2663C29.8116 296.184 28.275 296.337 26.6564 296.645L26.6564 292.158C28.193 292.465 29.7296 292.619 31.2663 292.619H45.2495C46.7861 292.619 48.3228 292.465 49.8594 292.158V296.737C48.3432 297.495 47.0217 298.299 45.8949 299.149L34.6468 307.647H45.2495C46.7861 307.647 48.3228 307.493 49.8594 307.186L49.8594 311.827ZM49.8594 288.163C48.3228 287.855 46.7913 287.702 45.2649 287.702H31.2816C29.7348 287.702 28.193 287.855 26.6564 288.163V275.9H29.7911C29.4838 277.437 29.3301 278.974 29.3301 280.51V282.784C29.955 282.887 30.6004 282.938 31.2663 282.938H36.8596V280.51C36.8596 278.974 36.7059 277.437 36.3986 275.9H40.0096C39.7023 277.437 39.5486 278.974 39.5486 280.51V282.938H45.2495C45.9154 282.938 46.5608 282.897 47.1857 282.815L47.1857 278.666C47.1857 277.048 47.032 275.511 46.7247 274.056H49.8594V288.163ZM49.8594 271.598C48.3228 271.29 46.7861 271.137 45.2495 271.137H31.2663C29.7296 271.137 28.193 271.29 26.6564 271.598V264.837C26.6564 262.071 27.3018 259.889 28.5925 258.291C29.8731 256.703 31.6043 255.909 33.7863 255.909C35.9581 255.909 37.6842 256.713 38.9647 258.321C39.3335 258.782 39.6511 259.295 39.9174 259.858L46.2483 255.617C47.5801 254.726 48.7837 253.758 49.8594 252.713V259.305C48.3432 259.889 46.9705 260.596 45.7412 261.425L40.8855 264.683V266.373H45.311C46.8066 266.373 48.3228 266.194 49.8594 265.835V271.598ZM38.1811 266.373V265.144C38.1811 263.812 37.7918 262.767 37.0132 262.009C36.1937 261.21 35.1181 260.811 33.7863 260.811C32.3829 260.811 31.2919 261.22 30.5133 262.04C29.7245 262.86 29.3301 263.894 29.3301 265.144V266.266C29.9755 266.337 30.6414 266.373 31.3277 266.373H38.1811Z" fill="white"/>
<path d="M35.8706 213.385C35.3687 212.81 35.1473 212.14 35.2066 211.375C35.2658 210.611 35.5877 209.983 36.1722 209.492C36.7567 209.001 37.4362 208.785 38.2107 208.845C38.9853 208.905 39.6235 209.223 40.1254 209.798C40.6273 210.374 40.8486 211.043 40.7894 211.808C40.7302 212.572 40.4083 213.2 39.8238 213.691C39.2393 214.182 38.5598 214.398 37.7852 214.338C37.0107 214.278 36.3725 213.96 35.8706 213.385Z" fill="white"/>
<path d="M53.1603 187.605C51.5014 187.636 49.985 187.786 48.6113 188.053L32.8123 191.131C31.4704 191.395 30.0169 191.84 28.4519 192.466L29.9655 186.261C31.5365 186.25 33.0528 186.101 34.5145 185.813L47.9266 183.197L37.2262 174.698C36.329 173.991 35.0518 173.16 33.3946 172.206L34.5854 167.324C35.6079 168.539 36.6931 169.604 37.8411 170.517L50.4478 180.525C51.5441 181.395 52.8213 182.226 54.2794 183.018L53.1603 187.605Z" fill="white"/>
<path d="M58.1818 169.822C56.8833 168.988 55.5343 168.296 54.1348 167.747L41.3132 162.72C39.8949 162.164 38.426 161.751 36.9065 161.48L41.3151 150.236L44.1893 151.363C43.3551 152.662 42.6617 154.016 42.1093 155.424L41.2917 157.51C41.8278 157.828 42.4012 158.107 43.0117 158.347L48.1403 160.358L49.0132 158.131C49.5657 156.723 49.9772 155.258 50.2479 153.739L53.5589 155.037C52.7247 156.336 52.0313 157.689 51.4789 159.098L50.606 161.324L55.8333 163.374C56.4438 163.613 57.0503 163.808 57.6527 163.957L59.1444 160.153C59.7263 158.669 60.1378 157.205 60.379 155.761L63.2533 156.888L58.1818 169.822Z" fill="white"/>
<path d="M65.1621 152.532C63.9823 151.537 62.7294 150.675 61.4036 149.945L49.3387 143.304C48.0129 142.574 46.6141 141.977 45.1423 141.512L47.4046 137.402C49.1179 137.47 50.64 137.404 51.971 137.204L65.5379 135.153L56.5489 130.205C55.2938 129.514 53.895 128.917 52.3525 128.413L54.4835 124.542C55.6633 125.537 56.9162 126.399 58.242 127.129L70.3069 133.77C71.6327 134.5 73.0315 135.097 74.5033 135.562L72.3286 139.512C70.6604 139.446 69.1383 139.513 67.7622 139.711L54.0215 141.701L63.1697 146.736C64.4955 147.466 65.8943 148.063 67.3661 148.528L65.1621 152.532Z" fill="white"/>
<path d="M90.169 114.395L86.701 118.907C86.1181 118.026 85.607 117.391 85.1677 117.003C85.6981 119.243 85.1239 121.455 83.4453 123.639C81.7543 125.838 79.7308 126.981 77.3748 127.066C75.3054 127.142 72.9469 126.163 70.2992 124.127L63.5921 118.971C62.3842 118.043 61.0841 117.234 59.6918 116.546L63.1967 111.986C64.1641 113.112 65.2717 114.154 66.5196 115.113L73.1787 120.232C74.9865 121.622 76.5013 122.366 77.723 122.466C79.475 122.604 80.8491 122.025 81.8452 120.729C82.8045 119.481 83.0461 118.082 82.5701 116.533C82.1698 115.233 81.0378 113.866 79.174 112.433L72.4908 107.296C71.259 106.349 69.9749 105.553 68.6385 104.907L72.0512 100.468C73.0666 101.63 74.1742 102.672 75.3741 103.595L86.2927 111.988C87.4926 112.91 88.7847 113.713 90.169 114.395Z" fill="white"/>
<path d="M98.2386 106.601C96.6925 108.137 94.7271 109.201 92.3423 109.792L88.4706 105.895L88.578 105.788C89.597 106.141 90.5809 106.337 91.5296 106.376C93.5269 106.468 95.1769 105.867 96.4796 104.573C97.2742 103.783 97.6519 102.825 97.6128 101.698C97.5737 100.585 97.1666 99.6381 96.3916 98.8579C95.5099 97.9704 94.0624 97.7301 92.0492 98.1372L88.9223 98.7689C85.9596 99.3655 83.7245 98.9051 82.2171 97.3876C80.7808 95.9418 80.3047 94.2886 80.7889 92.4282C81.1502 91.031 81.9178 89.7494 83.0917 88.5833C84.2728 87.4101 85.6883 86.5087 87.3384 85.8792L90.5275 89.0895L90.4201 89.1962C88.189 88.6252 86.4471 88.9618 85.1945 90.2062C84.765 90.6328 84.5067 91.0885 84.4195 91.5734C84.2813 92.3506 84.4825 93.0111 85.0229 93.5551C85.7268 94.2638 86.9712 94.4355 88.756 94.0705L91.6259 93.4807C95.2169 92.7435 97.8727 93.241 99.5935 94.9732C101.03 96.4191 101.677 98.1513 101.535 100.17C101.384 102.424 100.286 104.568 98.2386 106.601Z" fill="white"/>
<path d="M107.891 79.9582C107.993 79.2025 108.352 78.5956 108.968 78.1376C109.584 77.6796 110.27 77.509 111.027 77.6259C111.784 77.7428 112.396 78.1123 112.862 78.7345C113.329 79.3566 113.511 80.0456 113.409 80.8013C113.306 81.557 112.947 82.1639 112.331 82.6219C111.715 83.0799 111.029 83.2504 110.272 83.1335C109.515 83.0166 108.904 82.6471 108.437 82.025C107.971 81.4028 107.788 80.7139 107.891 79.9582Z" fill="white"/>
<path d="M150.363 70.1003L145.298 72.6943C145.148 71.6489 144.958 70.8566 144.727 70.3174C144.248 72.5691 142.783 74.3228 140.331 75.5784C137.862 76.8432 135.544 77.0101 133.378 76.0789C131.475 75.2626 129.762 73.3682 128.24 70.3958L124.383 62.8661C123.689 61.5101 122.86 60.2231 121.896 59.0051L127.014 56.3835C127.407 57.8146 127.962 59.2306 128.68 60.6315L132.509 68.1074C133.548 70.1369 134.599 71.4578 135.661 72.0702C137.185 72.9444 138.675 73.0089 140.13 72.2638C141.531 71.5463 142.347 70.3855 142.58 68.7814C142.775 67.4349 142.336 65.7154 141.264 63.6231L137.422 56.1203C136.713 54.7374 135.893 53.4683 134.962 52.3132L139.946 49.7606C140.366 51.2456 140.921 52.6616 141.611 54.0086L147.889 66.2663C148.579 67.6133 149.404 68.8913 150.363 70.1003Z" fill="white"/>
<path d="M156.259 67.965C156.011 66.4417 155.621 64.9716 155.089 63.5547L150.25 50.6609C149.718 49.2439 149.045 47.8802 148.23 46.5696L153.472 44.6022C153.721 46.1255 154.111 47.5956 154.643 49.0125L159.481 61.9063C160.013 63.3232 160.686 64.687 161.502 65.9975L156.259 67.965Z" fill="white"/>
<path d="M166.602 66.8963C167.201 65.2969 167.616 63.8347 167.849 62.5098L171.622 40.7451C171.881 39.246 172 37.727 171.978 36.188L177.273 34.782C176.694 36.2613 176.279 37.7234 176.026 39.1686L172.253 60.9332C172.018 62.29 171.9 63.809 171.897 65.4904L166.602 66.8963Z" fill="white"/>
<path d="M208.242 56.2205L202.592 56.8973C202.814 55.8647 202.91 55.0555 202.881 54.4697C201.651 56.4156 199.668 57.5524 196.933 57.8799C194.178 58.2099 191.947 57.5626 190.238 55.9382C188.736 54.5126 187.787 52.1419 187.389 48.826L186.383 40.4262C186.202 38.9135 185.871 37.4188 185.389 35.9421L191.099 35.2582C190.971 36.7368 191.001 38.2574 191.188 39.8202L192.187 48.1599C192.458 50.4239 192.986 52.0272 193.769 52.9699C194.896 54.3185 196.271 54.8956 197.894 54.7012C199.457 54.514 200.625 53.7085 201.4 52.2846C202.049 51.089 202.234 49.3242 201.954 46.9901L200.952 38.6203C200.767 37.0775 200.438 35.6029 199.965 34.1964L205.525 33.5304C205.404 35.0691 205.434 36.5897 205.614 38.0924L207.252 51.7666C207.432 53.2692 207.762 54.7539 208.242 56.2205Z" fill="white"/>
<path d="M211.921 56.26C212.849 55.3318 213.843 54.1766 214.902 52.7943L220.729 45.1971L214.781 36.9642C213.651 35.4004 212.698 34.2149 211.921 33.4077H218.867C219.503 34.9817 220.199 36.3336 220.956 37.4636L223.68 41.5347L226.631 37.388C227.428 36.268 228.17 34.9413 228.856 33.4077H234.425C233.578 34.225 232.584 35.3802 231.444 36.8734L225.647 44.4707L231.565 52.7035C232.675 54.2472 233.628 55.4327 234.425 56.26H227.509C227.014 54.898 226.318 53.546 225.42 52.2041L222.696 48.1482L219.745 52.2798C218.807 53.5914 218.065 54.9181 217.52 56.26H211.921Z" fill="white"/>
<path d="M257.42 55.4625C258.527 55.6295 259.521 55.5346 260.402 55.1777C261.575 54.7017 262.521 54.0792 263.239 53.31L260.426 48.0185C259.997 47.2089 259.309 46.7326 258.361 46.5896C257.323 46.4331 256.396 46.6962 255.579 47.379C254.712 48.1156 254.18 49.1423 253.981 50.4592C253.78 51.796 254.033 52.926 254.74 53.849C255.429 54.7591 256.323 55.2969 257.42 55.4625ZM272.364 60.0895L265.585 59.0667C265.411 57.9895 265.134 56.9835 264.755 56.0487C264.275 56.4559 263.794 56.8017 263.312 57.0862C261.565 58.1184 259.344 58.4312 256.651 58.0248C253.947 57.6169 251.91 56.6156 250.538 55.021C249.178 53.4179 248.649 51.6138 248.952 49.6085C249.257 47.5833 250.326 46.0813 252.157 45.1026C252.868 44.7201 253.685 44.4761 254.609 44.3706C252.527 42.9545 251.639 41.2288 251.947 39.1936C252.225 37.348 253.222 36.0138 254.938 35.1912C256.138 34.607 257.656 34.4534 259.492 34.7304C261.308 35.0043 262.83 35.6013 264.058 36.5213L263.367 41.1005L263.218 41.0779C262.387 38.8711 261.084 37.6337 259.309 37.3658C258.61 37.2604 258.006 37.4141 257.494 37.8267C256.96 38.2563 256.625 38.92 256.49 39.8179C256.335 40.8455 256.564 41.6606 257.177 42.2633C257.969 43.0357 258.883 43.5002 259.921 43.6568L263.767 44.237C264.05 45.3308 264.624 46.703 265.487 48.3536L266.164 49.6495L266.503 49.2262C267.433 48.0706 268.182 46.6582 268.75 44.9889L273.972 45.7769C272.711 46.9028 271.535 48.1385 270.444 49.4841L267.848 52.6892L269.515 55.7415C270.299 57.176 271.248 58.6253 272.364 60.0895Z" fill="white"/>
<path d="M296.898 69.8408C293.19 68.374 290.598 66.1841 289.121 63.2709C287.646 60.3804 287.546 57.2883 288.821 53.9945C290.096 50.7008 292.261 48.488 295.314 47.3561C298.315 46.247 301.674 46.4277 305.391 47.8983C308.375 49.0784 310.707 50.7901 312.389 53.0334L310.389 58.2006L310.233 58.1391C309.312 54.1287 307.373 51.539 304.418 50.3701C302.263 49.5175 300.116 49.6531 297.978 50.7769C296.059 51.7809 294.63 53.4956 293.691 55.9211C292.753 58.3466 292.65 60.5749 293.382 62.6061C294.22 64.9289 295.669 66.4979 297.729 67.3132C299.301 67.9349 300.885 68.1317 302.482 67.9036L302.425 67.8813L304.82 61.6949L304.001 61.371C302.59 60.8126 301.123 60.3957 299.602 60.1204L300.726 57.2183L310.291 61.0186L306.877 69.8381C303.423 71.1057 300.097 71.1066 296.898 69.8408Z" fill="white"/>
<path d="M311.132 74.5494C312.148 73.3878 313.033 72.1509 313.787 70.8385L320.646 58.8961C321.4 57.5837 322.022 56.196 322.513 54.7329L328.288 58.0493C330.65 59.406 332.197 61.0275 332.929 62.9137C333.657 64.7862 333.486 66.6542 332.415 68.5177C331.35 70.3725 329.817 71.4523 327.815 71.757C327.24 71.8459 326.647 71.8658 326.035 71.817L326.552 79.3041C326.66 80.8787 326.896 82.3815 327.261 83.8127L321.631 80.5792C321.876 78.998 321.946 77.4789 321.84 76.022L321.44 70.277L319.996 69.448L317.825 73.2275C317.092 74.5049 316.501 75.8877 316.054 77.3759L311.132 74.5494ZM321.323 67.1382L322.372 67.7412C323.51 68.3944 324.593 68.5745 325.622 68.2814C326.707 67.9734 327.576 67.2507 328.229 66.1134C328.917 64.9147 329.102 63.782 328.784 62.7151C328.471 61.6394 327.781 60.7951 326.714 60.182L325.756 59.6318C325.378 60.1478 325.021 60.6989 324.684 61.2851L321.323 67.1382Z" fill="white"/>
<path d="M329.219 85.0611C330.749 84.6452 332.169 84.1084 333.478 83.4507L347.835 76.218C349.083 75.5888 350.371 74.7787 351.701 73.7876L355.385 76.7448C354.717 78.2666 354.216 79.7086 353.881 81.0708L350.034 96.7388C349.709 98.0568 349.501 99.5666 349.412 101.268L344.712 97.4962C345.366 96.0408 345.868 94.5988 346.217 93.1702L347.353 88.5291L341.141 83.5437L336.888 85.6826C335.491 86.3861 334.202 87.1963 333.022 88.1131L329.219 85.0611ZM349.658 79.1567L343.593 82.3082L348.01 85.8529L349.658 79.1567Z" fill="white"/>
<path d="M363.412 99.3424L364.248 100.215C365.16 101.168 366.146 101.646 367.207 101.647C368.332 101.657 369.367 101.209 370.312 100.304C371.308 99.349 371.804 98.316 371.799 97.2044C371.802 96.086 371.379 95.083 370.529 94.1954L369.767 93.3989C369.26 93.7869 368.763 94.2143 368.276 94.6811L363.412 99.3424ZM351.573 103.575C352.872 102.748 354.067 101.812 355.158 100.767L365.082 91.2566C366.172 90.2114 367.158 89.0572 368.04 87.7938L372.636 92.5952C374.516 94.5594 375.541 96.5478 375.711 98.5606C375.881 100.559 375.192 102.3 373.644 103.785C372.102 105.262 370.331 105.865 368.329 105.593C366.327 105.322 364.396 104.215 362.537 102.273L361.493 101.182L358.352 104.192C357.29 105.209 356.336 106.368 355.489 107.667L351.573 103.575Z" fill="white"/>
<path d="M364.471 118.573C365.876 117.925 367.192 117.154 368.419 116.26L379.587 108.126C380.814 107.232 381.952 106.215 383.002 105.075L386.289 109.63C384.884 110.278 383.568 111.049 382.34 111.943L377.873 115.196L383.648 123.199L388.115 119.946C389.35 119.046 390.488 118.029 391.53 116.895L394.808 121.438C393.403 122.085 392.087 122.856 390.86 123.75L379.692 131.884C378.465 132.778 377.327 133.795 376.277 134.935L372.999 130.392C374.404 129.744 375.72 128.974 376.947 128.08L381.5 124.764L375.726 116.761L371.173 120.077C369.946 120.971 368.807 121.988 367.758 123.128L364.471 118.573Z" fill="white"/>
<path d="M380.122 139.752C381.587 139.268 382.978 138.652 384.293 137.904L396.267 131.099C397.582 130.351 398.823 129.472 399.99 128.461L402.756 133.329C401.291 133.814 399.901 134.43 398.585 135.178L386.611 141.983C385.296 142.73 384.055 143.61 382.888 144.621L380.122 139.752Z" fill="white"/>
<path d="M398.592 150.349L399.089 151.455C399.632 152.663 400.405 153.446 401.408 153.804C402.469 154.191 403.598 154.114 404.796 153.574C406.059 153.006 406.875 152.194 407.244 151.141C407.622 150.084 407.558 148.992 407.053 147.867L406.599 146.858C405.989 147.055 405.376 147.292 404.758 147.571L398.592 150.349ZM385.971 150.38C387.477 150.034 388.922 149.55 390.305 148.927L402.886 143.258C404.269 142.635 405.589 141.874 406.848 140.974L409.583 147.06C410.702 149.55 411.004 151.776 410.489 153.737C409.979 155.686 408.743 157.102 406.779 157.987C404.825 158.867 402.947 158.843 401.144 157.914C399.341 156.986 397.887 155.29 396.78 152.828L396.158 151.445L392.177 153.239C390.831 153.846 389.539 154.622 388.302 155.567L385.971 150.38Z" fill="white"/>
<path d="M397.02 177.996C398.563 177.956 400.072 177.768 401.548 177.432L414.977 174.379C416.452 174.043 417.895 173.56 419.303 172.929L421.27 181.577C422.169 185.532 421.808 188.837 420.187 191.492C418.442 194.372 416.054 196.157 413.024 196.846C409.944 197.546 406.998 196.964 404.184 195.1C401.613 193.398 399.881 190.579 398.986 186.644L397.02 177.996ZM400.77 182.544L401.569 186.057C402.101 188.398 403.376 190.069 405.393 191.069C407.394 192.042 409.551 192.266 411.863 191.74C414.184 191.212 416.032 190.078 417.406 188.338C418.797 186.583 419.224 184.525 418.687 182.164L417.895 178.681C417.253 178.724 416.627 178.815 416.017 178.953L402.588 182.007C401.899 182.163 401.293 182.343 400.77 182.544Z" fill="white"/>
<path d="M402.305 204.456C403.839 204.625 405.355 204.644 406.852 204.513L420.571 203.307C422.089 203.174 423.588 202.891 425.069 202.457L426.126 214.487L423.051 214.757C423.22 213.223 423.238 211.702 423.106 210.195L422.91 207.964C422.288 207.917 421.65 207.922 420.997 207.98L415.509 208.462L415.718 210.844C415.851 212.351 416.134 213.846 416.568 215.327L413.025 215.638C413.194 214.104 413.213 212.583 413.08 211.075L412.871 208.693L407.278 209.185C406.624 209.242 405.995 209.338 405.389 209.472L405.746 213.543C405.886 215.131 406.169 216.625 406.596 218.026L403.52 218.296L402.305 204.456Z" fill="white"/>
<path d="M402.217 228.347C402.217 226.168 402.847 224.024 404.109 221.915H409.602V222.067C408.634 222.541 407.801 223.101 407.105 223.747C405.632 225.099 404.896 226.693 404.896 228.529C404.896 229.649 405.309 230.592 406.137 231.359C406.954 232.116 407.912 232.494 409.012 232.494C410.263 232.494 411.454 231.636 412.584 229.921L414.339 227.258C416.004 224.735 417.906 223.474 420.045 223.474C422.083 223.474 423.591 224.301 424.57 225.956C425.306 227.197 425.674 228.645 425.674 230.3C425.674 231.964 425.316 233.604 424.6 235.218H420.075V235.067C422.052 233.886 423.041 232.413 423.041 230.648C423.041 230.042 422.9 229.538 422.617 229.134C422.163 228.489 421.553 228.166 420.786 228.166C419.787 228.166 418.789 228.927 417.79 230.451L416.185 232.903C414.178 235.97 411.953 237.503 409.511 237.503C407.473 237.503 405.788 236.742 404.457 235.218C402.963 233.523 402.217 231.233 402.217 228.347ZM402.52 240.106C404.056 240.414 405.593 240.567 407.129 240.567H421.113C422.649 240.567 424.186 240.414 425.723 240.106V245.792C424.186 245.484 422.649 245.331 421.113 245.331H407.129C405.593 245.331 404.056 245.484 402.52 245.792V240.106ZM402.212 262.126C402.212 258.09 403.308 254.843 405.501 252.384C407.672 249.936 410.546 248.711 414.121 248.711C417.696 248.711 420.585 249.946 422.788 252.415C424.949 254.843 426.03 258.08 426.03 262.126C426.03 265.373 425.287 268.201 423.802 270.608H418.193V270.439C421.625 268.104 423.341 265.327 423.341 262.111C423.341 259.765 422.414 257.788 420.559 256.179C418.9 254.735 416.754 254.013 414.121 254.013C411.488 254.013 409.352 254.73 407.713 256.164C405.839 257.803 404.901 259.744 404.901 261.988C404.901 263.699 405.306 265.266 406.115 266.69V266.628H412.83V265.737C412.83 264.201 412.677 262.664 412.369 261.127H415.519L415.504 271.546H405.931C403.452 268.749 402.212 265.609 402.212 262.126ZM402.52 275.233C404.056 275.541 405.593 275.694 407.129 275.694H421.113C422.649 275.694 424.186 275.541 425.723 275.233V279.997C424.165 280.776 422.844 281.58 421.758 282.409L410.694 290.876H421.113C422.567 290.876 424.104 290.723 425.723 290.415V294.902C424.186 294.595 422.649 294.441 421.113 294.441H407.129C405.593 294.441 404.056 294.595 402.52 294.902V290.323C404.036 289.565 405.357 288.761 406.484 287.911L417.732 279.413H407.129C405.593 279.413 404.056 279.567 402.52 279.874V275.233ZM402.52 298.897C404.056 299.205 405.588 299.358 407.114 299.358H421.097C422.644 299.358 424.186 299.205 425.723 298.897V311.16H422.588C422.895 309.623 423.049 308.086 423.049 306.55V304.276C422.424 304.173 421.779 304.122 421.113 304.122H415.519V306.55C415.519 308.086 415.673 309.623 415.98 311.16H412.369C412.677 309.623 412.83 308.086 412.83 306.55V304.122H407.129C406.464 304.122 405.818 304.163 405.193 304.245V308.394C405.193 310.012 405.347 311.549 405.654 313.004H402.52V298.897ZM402.52 315.462C404.056 315.77 405.593 315.923 407.129 315.923H421.113C422.649 315.923 424.186 315.77 425.723 315.462V322.223C425.723 324.989 425.077 327.171 423.786 328.769C422.506 330.357 420.775 331.151 418.593 331.151C416.421 331.151 414.695 330.347 413.414 328.739C413.045 328.278 412.728 327.765 412.461 327.202L406.131 331.443C404.799 332.334 403.595 333.302 402.52 334.347V327.755C404.036 327.171 405.408 326.464 406.638 325.635L411.493 322.377V320.687H407.068C405.572 320.687 404.056 320.866 402.52 321.225V315.462ZM414.198 320.687V321.916C414.198 323.248 414.587 324.293 415.366 325.051C416.185 325.85 417.261 326.249 418.593 326.249C419.996 326.249 421.087 325.84 421.866 325.02C422.654 324.2 423.049 323.166 423.049 321.916V320.794C422.403 320.723 421.738 320.687 421.051 320.687H414.198Z" fill="white"/>
</svg>
