<svg width="229" height="571" viewBox="0 0 229 571" fill="none" xmlns="http://www.w3.org/2000/svg">
<mask id="mask0_1516_4204" style="mask-type:alpha" maskUnits="userSpaceOnUse" x="0" y="0" width="229" height="571">
<rect x="0.380859" width="228.236" height="571" fill="#D9D9D9"/>
</mask>
<g mask="url(#mask0_1516_4204)">
<path fill-rule="evenodd" clip-rule="evenodd" d="M-68.7453 571.818C89.1579 571.818 217.164 443.812 217.164 285.909C217.164 128.006 89.1579 0 -68.7453 0C-226.648 0 -354.654 128.006 -354.654 285.909C-354.654 443.812 -226.648 571.818 -68.7453 571.818ZM-68.4161 538.917C71.1347 538.917 184.263 425.789 184.263 286.238C184.263 146.687 71.1347 33.559 -68.4161 33.559C-207.967 33.559 -321.095 146.687 -321.095 286.238C-321.095 425.789 -207.967 538.917 -68.4161 538.917Z" fill="#700000"/>
</g>
</svg>
